<svg width="200" height="119" viewBox="0 0 200 119" fill="none" xmlns="http://www.w3.org/2000/svg">
<path fill-rule="evenodd" clip-rule="evenodd" d="M53.0037 79.0114C48.7637 82.1908 44.329 85.0588 39.6994 87.6152H1.93348C2.32713 87.2143 2.71368 86.816 3.11403 86.4035L3.11444 86.403L3.11523 86.4022C4.20695 85.2772 5.40148 84.0463 7.12277 82.3689C8.56948 81.2052 9.98047 79.9994 11.408 78.7795L11.4081 78.7794L11.4081 78.7794C11.8291 78.4197 12.2515 78.0587 12.6767 77.6972L54.6973 77.6972C54.1405 78.1386 53.5759 78.5766 53.0037 79.0114ZM59.275 73.8398L17.3764 73.8398C20.5884 71.2547 23.7524 68.621 26.8682 65.9388C28.6624 64.3646 30.353 62.7744 31.9399 61.168L70.8841 61.168C69.7822 62.6667 68.5987 64.1474 67.3335 65.6099C64.8995 68.461 62.2134 71.2043 59.275 73.8398ZM35.7429 57.0593C35.6704 57.1431 35.5977 57.2269 35.5247 57.3107L73.5146 57.3107C74.8737 55.1526 76.07 52.9585 77.1037 50.7285C77.4565 49.9764 77.7838 49.2249 78.0857 48.474V57.3107L200 57.3107C199.811 51.5551 198.776 46.0069 197.013 40.7792L44.222 40.7792C43.8745 43.0935 43.1379 45.3685 42.0122 47.6042C40.4381 50.8381 38.3483 53.9898 35.7429 57.0593ZM44.4337 36.9219C44.3308 35.1577 43.8492 33.6483 42.9892 32.3939C42.0664 30.9139 40.8723 29.7355 39.4068 28.8585C37.9412 27.9815 36.2857 27.3512 34.4402 26.9675C32.649 26.5838 30.8578 26.3919 29.0666 26.3919C26.8411 26.3919 24.5885 26.5564 22.3088 26.8853C20.0291 27.2141 17.8307 27.6252 15.7139 28.1185C13.597 28.6118 11.6158 29.1874 9.77027 29.8451C7.97906 30.448 6.45924 31.051 5.21081 31.6539L0 5.34416C6.07928 3.26131 12.0771 1.86361 17.9936 1.15105C23.91 0.383683 29.5008 0 34.7659 0L55.202 0L69.6132 0L71.7618 0L75.3362 0L77.1037 0L139.059 0C164.607 0 186.486 15.2664 195.557 36.9219L44.4337 36.9219ZM78.0857 73.8398V61.168L200 61.168C199.856 65.5273 199.228 69.7677 198.165 73.8398L78.0857 73.8398ZM78.0857 77.6972V87.6152L192.594 87.6152C194.363 84.4713 195.847 81.1543 197.013 77.6972L78.0857 77.6972ZM1.73821 99.1893L0.348805 91.4726L190.223 91.4726C188.392 94.2092 186.336 96.7898 184.079 99.1893L1.73821 99.1893ZM78.0857 118.476L5.21081 118.476L4.41829 114.074L162.165 114.074C155.039 116.912 147.237 118.476 139.059 118.476L79.6277 118.476H78.0857ZM2.53195 103.598L3.62455 109.666L171.068 109.666C174.049 107.876 176.859 105.844 179.47 103.598L2.53195 103.598Z" fill="white"/>
</svg>
