<svg width="12" height="13" viewBox="0 0 12 13" fill="none" xmlns="http://www.w3.org/2000/svg">
<mask id="path-1-inside-1_760_12264" fill="white">
<path d="M5.99447 12.5C5.99447 12.5 5.89493 11.8346 5.85069 11.8346C5.79539 11.8346 5.71797 12.5 5.66267 12.5C5.60737 12.5 5.60737 11.8235 5.55207 11.8235C5.49677 11.8235 5.38618 12.4778 5.33088 12.4778C5.27558 12.4778 5.30876 11.8013 5.25346 11.8013C5.19816 11.8013 5.05438 12.4445 4.99908 12.4335C4.94378 12.4335 5.01014 11.7569 4.9659 11.7458C4.9106 11.7458 4.72258 12.378 4.67834 12.3669C4.62304 12.3558 4.73364 11.6904 4.67834 11.6793C4.62304 11.6682 4.40184 12.3004 4.3576 12.2782C4.3023 12.2671 4.44608 11.6128 4.40184 11.5906C4.3576 11.5795 4.09217 12.1895 4.04793 12.1784C4.00369 12.1562 4.16959 11.5129 4.12535 11.5018C4.08111 11.4797 3.78249 12.0896 3.73825 12.0675C3.69401 12.0453 3.90415 11.4131 3.84885 11.3909C3.80461 11.3688 3.47281 11.9566 3.42857 11.9344C3.38433 11.9122 3.62765 11.2911 3.58341 11.2689C3.53917 11.2468 3.18525 11.8124 3.14101 11.7902C3.09677 11.768 3.37327 11.158 3.32903 11.1359C3.28479 11.1137 2.8977 11.6571 2.85346 11.6238C2.80922 11.6017 3.11889 11.0028 3.07465 10.9806C3.03041 10.9473 2.6212 11.4797 2.57696 11.4464C2.53272 11.4131 2.87558 10.8475 2.8424 10.8142C2.80922 10.781 2.35576 11.28 2.31152 11.2468C2.26728 11.2135 2.64332 10.659 2.61014 10.6257C2.5659 10.5924 2.10138 11.0693 2.05714 11.036C2.0129 11.0028 2.42212 10.4704 2.38894 10.4372C2.35576 10.4039 1.85806 10.8475 1.81382 10.8142C1.78065 10.781 2.21198 10.2708 2.1788 10.2375C2.14562 10.2043 1.62581 10.6257 1.59263 10.5813C1.55945 10.5481 2.02396 10.0601 1.97972 10.0157C1.94654 9.97135 1.40461 10.3706 1.37143 10.3262C1.33825 10.2819 1.82488 9.82717 1.79171 9.78281C1.75853 9.73845 1.19447 10.1044 1.17235 10.0601C1.13917 10.0157 1.64793 9.58318 1.62581 9.54991C1.59263 9.50555 1.01751 9.83826 0.984332 9.7939C0.951152 9.74953 1.49309 9.35028 1.45991 9.30591C1.42673 9.26155 0.829493 9.561 0.807373 9.51663C0.785253 9.47227 1.33825 9.09519 1.31613 9.05083C1.29401 9.00647 0.674654 9.27264 0.652535 9.21719C0.630415 9.17282 1.20553 8.82902 1.18341 8.78466C1.16129 8.74029 0.530876 8.96211 0.508756 8.91775C0.486636 8.87338 1.08387 8.56285 1.06175 8.51848C1.03963 8.47412 0.398157 8.66266 0.387097 8.6183C0.364977 8.57394 0.973272 8.29667 0.962212 8.24122C0.940092 8.19686 0.298618 8.35212 0.276498 8.29667C0.265438 8.25231 0.884793 8.00832 0.873733 7.95286C0.862673 7.89741 0.199078 8.01941 0.188018 7.97504C0.176959 7.91959 0.807373 7.71996 0.796313 7.66451C0.785253 7.60906 0.121659 7.69778 0.110599 7.65342C0.110599 7.59796 0.741014 7.43161 0.741014 7.38724C0.741014 7.33179 0.0663594 7.38725 0.0552995 7.33179C0.0552995 7.27634 0.696774 7.14325 0.696774 7.09889C0.696774 7.04343 0.0221198 7.05453 0.0221198 7.01017C0.0221198 6.95471 0.674654 6.86599 0.674654 6.81053C0.674654 6.75508 0 6.7329 0 6.67745C0 6.622 0.663594 6.56654 0.663594 6.51109C0.663594 6.45564 0.0110599 6.38909 0.0110599 6.33364C0.0110599 6.27819 0.674654 6.25601 0.685714 6.20055C0.685714 6.1451 0.0331797 6.05638 0.0331797 6.00092C0.0331797 5.94547 0.707834 5.95656 0.707834 5.9122C0.707834 5.85674 0.0552995 5.72366 0.0663594 5.6793C0.0663594 5.62384 0.741014 5.6793 0.752074 5.62384C0.752074 5.56839 0.110599 5.40203 0.121659 5.34658C0.121659 5.29113 0.796313 5.37985 0.807373 5.33549C0.818433 5.28003 0.188018 5.0804 0.199078 5.02495C0.210138 4.9695 0.862673 5.0915 0.884793 5.04713C0.895853 4.99168 0.276498 4.75878 0.287558 4.70332C0.298617 4.65896 0.951152 4.81423 0.973272 4.75878C0.995392 4.71442 0.387097 4.43715 0.398157 4.3817C0.420276 4.33734 1.05069 4.52588 1.07281 4.48152C1.09493 4.43715 0.497696 4.12662 0.519816 4.08225C0.541936 4.03789 1.17235 4.2597 1.19447 4.21534C1.21659 4.17098 0.641475 3.82717 0.663594 3.78281C0.685714 3.73845 1.30507 4.00462 1.32719 3.96026C1.34931 3.9159 0.796313 3.53881 0.818433 3.49445C0.840553 3.45009 1.43779 3.74954 1.47097 3.70517C1.49309 3.66081 0.962212 3.26155 0.995392 3.21719C1.02857 3.17282 1.60369 3.50554 1.63687 3.46118C1.67005 3.41682 1.16129 2.98429 1.18341 2.95102C1.21659 2.90665 1.78065 3.27264 1.80276 3.22828C1.83594 3.18392 1.34931 2.7292 1.38249 2.68484C1.41567 2.64048 1.9576 3.03974 1.99078 2.99538C2.02396 2.95102 1.55945 2.47412 1.60369 2.42976C1.63687 2.39649 2.15668 2.81793 2.18986 2.77357C2.22304 2.7292 1.79171 2.23013 1.82488 2.18576C1.85806 2.15249 2.35576 2.59611 2.4 2.56284C2.43318 2.52957 2.03502 1.99723 2.0682 1.96396C2.11244 1.93068 2.57696 2.40758 2.6212 2.37431C2.66544 2.34103 2.2894 1.7865 2.32258 1.75323C2.36682 1.71996 2.80922 2.21904 2.85346 2.18576C2.8977 2.15249 2.55484 1.58687 2.58802 1.5536C2.63226 1.52033 3.04147 2.05268 3.08571 2.01941C3.12995 1.98614 2.82028 1.39833 2.86452 1.37615C2.90876 1.35397 3.29585 1.89741 3.34009 1.86414C3.38433 1.84196 3.10783 1.23198 3.15207 1.2098C3.19631 1.18761 3.55023 1.75323 3.59447 1.73105C3.63871 1.70887 3.39539 1.0878 3.43963 1.06562C3.48387 1.04344 3.80461 1.63124 3.85991 1.60906C3.91521 1.58688 3.69401 0.954713 3.74931 0.932532C3.79355 0.910351 4.09217 1.52033 4.13641 1.49815C4.18064 1.47597 4.00369 0.832714 4.05899 0.821623C4.10323 0.799442 4.36866 1.42052 4.4129 1.40943C4.45714 1.39834 4.32442 0.743989 4.36866 0.721808C4.42396 0.710717 4.64516 1.34288 4.6894 1.3207C4.7447 1.30961 4.6341 0.644176 4.6894 0.633086C4.7447 0.621995 4.92166 1.26525 4.97696 1.25416C5.03226 1.25416 4.9659 0.577631 5.01014 0.566541C5.06544 0.566541 5.20922 1.20979 5.26452 1.1987C5.31982 1.1987 5.28664 0.522177 5.34194 0.522177C5.39724 0.522177 5.50783 1.17652 5.56313 1.17652C5.61843 1.17652 5.61843 0.5 5.67373 0.5C5.72903 0.5 5.80645 1.16543 5.86175 1.16543C5.91705 1.16543 5.96129 0.5 6.00553 0.5C6.04977 0.5 6.10507 1.16543 6.14931 1.16543C6.20461 1.16543 6.28203 0.5 6.33733 0.5C6.39263 0.5 6.39263 1.17652 6.44793 1.17652C6.50323 1.17652 6.61382 0.522177 6.66912 0.522177C6.72442 0.522177 6.69124 1.1987 6.74654 1.1987C6.80184 1.1987 6.94562 0.55545 7.00092 0.566541C7.05622 0.566541 6.98986 1.24306 7.0341 1.25416C7.0894 1.25416 7.27742 0.621995 7.32166 0.633086C7.37696 0.644176 7.26636 1.30961 7.32166 1.3207C7.37696 1.33179 7.59816 0.699627 7.6424 0.721808C7.6977 0.732899 7.55392 1.38725 7.59816 1.40943C7.6424 1.43161 7.90783 0.810533 7.95207 0.821623C7.99631 0.843805 7.83042 1.48706 7.87465 1.49815C7.91889 1.52033 8.21751 0.910351 8.26175 0.932532C8.30599 0.954713 8.09585 1.58688 8.15115 1.60906C8.20645 1.63124 8.52719 1.04344 8.57143 1.06562C8.61567 1.0878 8.37235 1.70887 8.41659 1.73105C8.46083 1.75323 8.81475 1.18761 8.85899 1.2098C8.90323 1.23198 8.62673 1.84196 8.67097 1.86414C8.71521 1.88632 9.1023 1.34288 9.14654 1.37615C9.19078 1.39833 8.88111 1.99723 8.92535 2.01941C8.96959 2.05268 9.3788 1.52033 9.42304 1.5536C9.46728 1.58687 9.12442 2.15249 9.1576 2.18576C9.20184 2.21904 9.64424 1.71996 9.68848 1.75323C9.73272 1.7865 9.35668 2.34103 9.38986 2.37431C9.4341 2.40758 9.89862 1.93068 9.94286 1.96396C9.9871 1.99723 9.57788 2.52957 9.61106 2.56284C9.64424 2.59611 10.1419 2.15249 10.1862 2.18576C10.2304 2.21904 9.78802 2.7292 9.8212 2.76247C9.85438 2.79575 10.3742 2.37431 10.4074 2.41867C10.4406 2.45194 9.97604 2.93992 10.0203 2.98429C10.0535 3.02865 10.5954 2.62939 10.6286 2.67375C10.6618 2.71811 10.1751 3.17282 10.2083 3.21719C10.2415 3.26155 10.8055 2.89556 10.8276 2.93992C10.8608 2.98428 10.3521 3.41682 10.3742 3.45009C10.4074 3.49445 10.9825 3.16174 11.0157 3.2061C11.0488 3.25046 10.5069 3.64972 10.5401 3.69408C10.5733 3.73844 11.1705 3.439 11.1926 3.48336C11.2147 3.52772 10.6618 3.9048 10.6839 3.94916C10.706 3.99353 11.3253 3.72736 11.3475 3.78281C11.3696 3.82717 10.7945 4.17098 10.8166 4.21534C10.8387 4.2597 11.4691 4.03789 11.4912 4.08225C11.5134 4.12662 10.9161 4.43715 10.9382 4.48152C10.9604 4.52588 11.6018 4.33734 11.6129 4.3817C11.635 4.42606 11.0267 4.70333 11.0378 4.75878C11.0599 4.80314 11.7014 4.64787 11.7235 4.70332C11.7346 4.74769 11.1152 4.99168 11.1263 5.04713C11.1373 5.10259 11.8009 4.98059 11.812 5.02495C11.823 5.0804 11.1926 5.28003 11.2037 5.33549C11.2147 5.39094 11.8783 5.30222 11.8894 5.34658C11.8894 5.40203 11.259 5.56839 11.259 5.61275C11.259 5.6682 11.9336 5.61275 11.9447 5.66821C11.9447 5.72366 11.3032 5.85675 11.3032 5.90111C11.3032 5.95656 11.9779 5.94547 11.9779 5.98983C11.9779 6.04528 11.3253 6.13401 11.3253 6.18946C11.3253 6.24491 12 6.2671 12 6.32255C12 6.378 11.3364 6.43345 11.3364 6.48891C11.3364 6.54436 12 6.59981 12 6.65527C12 6.71072 11.3364 6.7329 11.3253 6.78835C11.3253 6.84381 11.9779 6.93253 11.9779 6.98798C11.9779 7.04344 11.3032 7.03234 11.3032 7.07671C11.3032 7.13216 11.9558 7.26525 11.9447 7.30961C11.9447 7.36506 11.27 7.30961 11.259 7.36506C11.259 7.42052 11.9005 7.58687 11.8894 7.64233C11.8894 7.69778 11.2147 7.60905 11.2037 7.65342C11.1926 7.70887 11.823 7.9085 11.812 7.96396C11.8009 8.01941 11.1484 7.89741 11.1263 7.94177C11.1152 7.99723 11.7346 8.23013 11.7235 8.28558C11.7124 8.32994 11.0599 8.17467 11.0378 8.23013C11.0157 8.27449 11.624 8.55175 11.6129 8.60721C11.5908 8.65157 10.9604 8.46303 10.9382 8.50739C10.9161 8.55175 11.5134 8.86229 11.4912 8.90665C11.4691 8.95101 10.8387 8.7292 10.8166 8.77357C10.7945 8.81793 11.3696 9.16174 11.3475 9.2061C11.3253 9.25046 10.706 8.98429 10.6839 9.02865C10.6618 9.07301 11.2147 9.45009 11.1926 9.49445C11.1705 9.53881 10.5733 9.23937 10.5401 9.28373C10.518 9.32809 11.0488 9.72735 11.0157 9.77172C10.9825 9.81608 10.4074 9.48336 10.3742 9.52773C10.341 9.57209 10.8498 10.0046 10.8276 10.0379C10.7945 10.0823 10.2304 9.71626 10.2083 9.76063C10.1751 9.80499 10.6618 10.2597 10.6286 10.3041C10.5954 10.3484 10.0535 9.94917 10.0203 9.99353C9.9871 10.0379 10.4516 10.5148 10.4074 10.5591C10.3742 10.5924 9.85438 10.171 9.8212 10.2153C9.78802 10.2597 10.2194 10.7588 10.1862 10.8031C10.153 10.8364 9.6553 10.3928 9.61106 10.4261C9.57788 10.4593 9.97604 10.9917 9.94286 11.025C9.89862 11.0582 9.4341 10.5813 9.38986 10.6146C9.34562 10.6479 9.72166 11.2024 9.68848 11.2357C9.64424 11.2689 9.20184 10.7699 9.1576 10.8031C9.11336 10.8364 9.45622 11.402 9.42304 11.4353C9.3788 11.4686 8.96959 10.9362 8.92535 10.9695C8.88111 11.0028 9.19078 11.5906 9.14654 11.6128C9.1023 11.6349 8.71521 11.0915 8.67097 11.1248C8.62673 11.1469 8.90323 11.7569 8.85899 11.7791C8.81475 11.8013 8.46083 11.2357 8.41659 11.2579C8.37235 11.28 8.61567 11.9011 8.57143 11.9233C8.52719 11.9455 8.20645 11.3577 8.15115 11.3798C8.10691 11.402 8.31705 12.0342 8.26175 12.0564C8.21751 12.0786 7.91889 11.4686 7.87465 11.4908C7.83042 11.5129 8.00737 12.1562 7.95207 12.1673C7.90783 12.1895 7.6424 11.5684 7.59816 11.5795C7.55392 11.5906 7.68664 12.2449 7.6424 12.2671C7.5871 12.2782 7.3659 11.646 7.32166 11.6682C7.26636 11.6793 7.37696 12.3447 7.32166 12.3558C7.26636 12.3669 7.0894 11.7237 7.0341 11.7347C6.9788 11.7347 7.04516 12.4113 7.00092 12.4224C6.94562 12.4224 6.80184 11.7791 6.74654 11.7902C6.69124 11.7902 6.72442 12.4667 6.66912 12.4667C6.61382 12.4667 6.50323 11.8124 6.44793 11.8124C6.39263 11.8124 6.39263 12.4889 6.33733 12.4889C6.28203 12.4889 6.20461 11.8235 6.14931 11.8235C6.09401 11.8235 6.04977 12.4889 6.00553 12.4889L5.99447 12.5Z"/>
</mask>
<path d="M5.99447 12.5C5.99447 12.5 5.89493 11.8346 5.85069 11.8346C5.79539 11.8346 5.71797 12.5 5.66267 12.5C5.60737 12.5 5.60737 11.8235 5.55207 11.8235C5.49677 11.8235 5.38618 12.4778 5.33088 12.4778C5.27558 12.4778 5.30876 11.8013 5.25346 11.8013C5.19816 11.8013 5.05438 12.4445 4.99908 12.4335C4.94378 12.4335 5.01014 11.7569 4.9659 11.7458C4.9106 11.7458 4.72258 12.378 4.67834 12.3669C4.62304 12.3558 4.73364 11.6904 4.67834 11.6793C4.62304 11.6682 4.40184 12.3004 4.3576 12.2782C4.3023 12.2671 4.44608 11.6128 4.40184 11.5906C4.3576 11.5795 4.09217 12.1895 4.04793 12.1784C4.00369 12.1562 4.16959 11.5129 4.12535 11.5018C4.08111 11.4797 3.78249 12.0896 3.73825 12.0675C3.69401 12.0453 3.90415 11.4131 3.84885 11.3909C3.80461 11.3688 3.47281 11.9566 3.42857 11.9344C3.38433 11.9122 3.62765 11.2911 3.58341 11.2689C3.53917 11.2468 3.18525 11.8124 3.14101 11.7902C3.09677 11.768 3.37327 11.158 3.32903 11.1359C3.28479 11.1137 2.8977 11.6571 2.85346 11.6238C2.80922 11.6017 3.11889 11.0028 3.07465 10.9806C3.03041 10.9473 2.6212 11.4797 2.57696 11.4464C2.53272 11.4131 2.87558 10.8475 2.8424 10.8142C2.80922 10.781 2.35576 11.28 2.31152 11.2468C2.26728 11.2135 2.64332 10.659 2.61014 10.6257C2.5659 10.5924 2.10138 11.0693 2.05714 11.036C2.0129 11.0028 2.42212 10.4704 2.38894 10.4372C2.35576 10.4039 1.85806 10.8475 1.81382 10.8142C1.78065 10.781 2.21198 10.2708 2.1788 10.2375C2.14562 10.2043 1.62581 10.6257 1.59263 10.5813C1.55945 10.5481 2.02396 10.0601 1.97972 10.0157C1.94654 9.97135 1.40461 10.3706 1.37143 10.3262C1.33825 10.2819 1.82488 9.82717 1.79171 9.78281C1.75853 9.73845 1.19447 10.1044 1.17235 10.0601C1.13917 10.0157 1.64793 9.58318 1.62581 9.54991C1.59263 9.50555 1.01751 9.83826 0.984332 9.7939C0.951152 9.74953 1.49309 9.35028 1.45991 9.30591C1.42673 9.26155 0.829493 9.561 0.807373 9.51663C0.785253 9.47227 1.33825 9.09519 1.31613 9.05083C1.29401 9.00647 0.674654 9.27264 0.652535 9.21719C0.630415 9.17282 1.20553 8.82902 1.18341 8.78466C1.16129 8.74029 0.530876 8.96211 0.508756 8.91775C0.486636 8.87338 1.08387 8.56285 1.06175 8.51848C1.03963 8.47412 0.398157 8.66266 0.387097 8.6183C0.364977 8.57394 0.973272 8.29667 0.962212 8.24122C0.940092 8.19686 0.298618 8.35212 0.276498 8.29667C0.265438 8.25231 0.884793 8.00832 0.873733 7.95286C0.862673 7.89741 0.199078 8.01941 0.188018 7.97504C0.176959 7.91959 0.807373 7.71996 0.796313 7.66451C0.785253 7.60906 0.121659 7.69778 0.110599 7.65342C0.110599 7.59796 0.741014 7.43161 0.741014 7.38724C0.741014 7.33179 0.0663594 7.38725 0.0552995 7.33179C0.0552995 7.27634 0.696774 7.14325 0.696774 7.09889C0.696774 7.04343 0.0221198 7.05453 0.0221198 7.01017C0.0221198 6.95471 0.674654 6.86599 0.674654 6.81053C0.674654 6.75508 0 6.7329 0 6.67745C0 6.622 0.663594 6.56654 0.663594 6.51109C0.663594 6.45564 0.0110599 6.38909 0.0110599 6.33364C0.0110599 6.27819 0.674654 6.25601 0.685714 6.20055C0.685714 6.1451 0.0331797 6.05638 0.0331797 6.00092C0.0331797 5.94547 0.707834 5.95656 0.707834 5.9122C0.707834 5.85674 0.0552995 5.72366 0.0663594 5.6793C0.0663594 5.62384 0.741014 5.6793 0.752074 5.62384C0.752074 5.56839 0.110599 5.40203 0.121659 5.34658C0.121659 5.29113 0.796313 5.37985 0.807373 5.33549C0.818433 5.28003 0.188018 5.0804 0.199078 5.02495C0.210138 4.9695 0.862673 5.0915 0.884793 5.04713C0.895853 4.99168 0.276498 4.75878 0.287558 4.70332C0.298617 4.65896 0.951152 4.81423 0.973272 4.75878C0.995392 4.71442 0.387097 4.43715 0.398157 4.3817C0.420276 4.33734 1.05069 4.52588 1.07281 4.48152C1.09493 4.43715 0.497696 4.12662 0.519816 4.08225C0.541936 4.03789 1.17235 4.2597 1.19447 4.21534C1.21659 4.17098 0.641475 3.82717 0.663594 3.78281C0.685714 3.73845 1.30507 4.00462 1.32719 3.96026C1.34931 3.9159 0.796313 3.53881 0.818433 3.49445C0.840553 3.45009 1.43779 3.74954 1.47097 3.70517C1.49309 3.66081 0.962212 3.26155 0.995392 3.21719C1.02857 3.17282 1.60369 3.50554 1.63687 3.46118C1.67005 3.41682 1.16129 2.98429 1.18341 2.95102C1.21659 2.90665 1.78065 3.27264 1.80276 3.22828C1.83594 3.18392 1.34931 2.7292 1.38249 2.68484C1.41567 2.64048 1.9576 3.03974 1.99078 2.99538C2.02396 2.95102 1.55945 2.47412 1.60369 2.42976C1.63687 2.39649 2.15668 2.81793 2.18986 2.77357C2.22304 2.7292 1.79171 2.23013 1.82488 2.18576C1.85806 2.15249 2.35576 2.59611 2.4 2.56284C2.43318 2.52957 2.03502 1.99723 2.0682 1.96396C2.11244 1.93068 2.57696 2.40758 2.6212 2.37431C2.66544 2.34103 2.2894 1.7865 2.32258 1.75323C2.36682 1.71996 2.80922 2.21904 2.85346 2.18576C2.8977 2.15249 2.55484 1.58687 2.58802 1.5536C2.63226 1.52033 3.04147 2.05268 3.08571 2.01941C3.12995 1.98614 2.82028 1.39833 2.86452 1.37615C2.90876 1.35397 3.29585 1.89741 3.34009 1.86414C3.38433 1.84196 3.10783 1.23198 3.15207 1.2098C3.19631 1.18761 3.55023 1.75323 3.59447 1.73105C3.63871 1.70887 3.39539 1.0878 3.43963 1.06562C3.48387 1.04344 3.80461 1.63124 3.85991 1.60906C3.91521 1.58688 3.69401 0.954713 3.74931 0.932532C3.79355 0.910351 4.09217 1.52033 4.13641 1.49815C4.18064 1.47597 4.00369 0.832714 4.05899 0.821623C4.10323 0.799442 4.36866 1.42052 4.4129 1.40943C4.45714 1.39834 4.32442 0.743989 4.36866 0.721808C4.42396 0.710717 4.64516 1.34288 4.6894 1.3207C4.7447 1.30961 4.6341 0.644176 4.6894 0.633086C4.7447 0.621995 4.92166 1.26525 4.97696 1.25416C5.03226 1.25416 4.9659 0.577631 5.01014 0.566541C5.06544 0.566541 5.20922 1.20979 5.26452 1.1987C5.31982 1.1987 5.28664 0.522177 5.34194 0.522177C5.39724 0.522177 5.50783 1.17652 5.56313 1.17652C5.61843 1.17652 5.61843 0.5 5.67373 0.5C5.72903 0.5 5.80645 1.16543 5.86175 1.16543C5.91705 1.16543 5.96129 0.5 6.00553 0.5C6.04977 0.5 6.10507 1.16543 6.14931 1.16543C6.20461 1.16543 6.28203 0.5 6.33733 0.5C6.39263 0.5 6.39263 1.17652 6.44793 1.17652C6.50323 1.17652 6.61382 0.522177 6.66912 0.522177C6.72442 0.522177 6.69124 1.1987 6.74654 1.1987C6.80184 1.1987 6.94562 0.55545 7.00092 0.566541C7.05622 0.566541 6.98986 1.24306 7.0341 1.25416C7.0894 1.25416 7.27742 0.621995 7.32166 0.633086C7.37696 0.644176 7.26636 1.30961 7.32166 1.3207C7.37696 1.33179 7.59816 0.699627 7.6424 0.721808C7.6977 0.732899 7.55392 1.38725 7.59816 1.40943C7.6424 1.43161 7.90783 0.810533 7.95207 0.821623C7.99631 0.843805 7.83042 1.48706 7.87465 1.49815C7.91889 1.52033 8.21751 0.910351 8.26175 0.932532C8.30599 0.954713 8.09585 1.58688 8.15115 1.60906C8.20645 1.63124 8.52719 1.04344 8.57143 1.06562C8.61567 1.0878 8.37235 1.70887 8.41659 1.73105C8.46083 1.75323 8.81475 1.18761 8.85899 1.2098C8.90323 1.23198 8.62673 1.84196 8.67097 1.86414C8.71521 1.88632 9.1023 1.34288 9.14654 1.37615C9.19078 1.39833 8.88111 1.99723 8.92535 2.01941C8.96959 2.05268 9.3788 1.52033 9.42304 1.5536C9.46728 1.58687 9.12442 2.15249 9.1576 2.18576C9.20184 2.21904 9.64424 1.71996 9.68848 1.75323C9.73272 1.7865 9.35668 2.34103 9.38986 2.37431C9.4341 2.40758 9.89862 1.93068 9.94286 1.96396C9.9871 1.99723 9.57788 2.52957 9.61106 2.56284C9.64424 2.59611 10.1419 2.15249 10.1862 2.18576C10.2304 2.21904 9.78802 2.7292 9.8212 2.76247C9.85438 2.79575 10.3742 2.37431 10.4074 2.41867C10.4406 2.45194 9.97604 2.93992 10.0203 2.98429C10.0535 3.02865 10.5954 2.62939 10.6286 2.67375C10.6618 2.71811 10.1751 3.17282 10.2083 3.21719C10.2415 3.26155 10.8055 2.89556 10.8276 2.93992C10.8608 2.98428 10.3521 3.41682 10.3742 3.45009C10.4074 3.49445 10.9825 3.16174 11.0157 3.2061C11.0488 3.25046 10.5069 3.64972 10.5401 3.69408C10.5733 3.73844 11.1705 3.439 11.1926 3.48336C11.2147 3.52772 10.6618 3.9048 10.6839 3.94916C10.706 3.99353 11.3253 3.72736 11.3475 3.78281C11.3696 3.82717 10.7945 4.17098 10.8166 4.21534C10.8387 4.2597 11.4691 4.03789 11.4912 4.08225C11.5134 4.12662 10.9161 4.43715 10.9382 4.48152C10.9604 4.52588 11.6018 4.33734 11.6129 4.3817C11.635 4.42606 11.0267 4.70333 11.0378 4.75878C11.0599 4.80314 11.7014 4.64787 11.7235 4.70332C11.7346 4.74769 11.1152 4.99168 11.1263 5.04713C11.1373 5.10259 11.8009 4.98059 11.812 5.02495C11.823 5.0804 11.1926 5.28003 11.2037 5.33549C11.2147 5.39094 11.8783 5.30222 11.8894 5.34658C11.8894 5.40203 11.259 5.56839 11.259 5.61275C11.259 5.6682 11.9336 5.61275 11.9447 5.66821C11.9447 5.72366 11.3032 5.85675 11.3032 5.90111C11.3032 5.95656 11.9779 5.94547 11.9779 5.98983C11.9779 6.04528 11.3253 6.13401 11.3253 6.18946C11.3253 6.24491 12 6.2671 12 6.32255C12 6.378 11.3364 6.43345 11.3364 6.48891C11.3364 6.54436 12 6.59981 12 6.65527C12 6.71072 11.3364 6.7329 11.3253 6.78835C11.3253 6.84381 11.9779 6.93253 11.9779 6.98798C11.9779 7.04344 11.3032 7.03234 11.3032 7.07671C11.3032 7.13216 11.9558 7.26525 11.9447 7.30961C11.9447 7.36506 11.27 7.30961 11.259 7.36506C11.259 7.42052 11.9005 7.58687 11.8894 7.64233C11.8894 7.69778 11.2147 7.60905 11.2037 7.65342C11.1926 7.70887 11.823 7.9085 11.812 7.96396C11.8009 8.01941 11.1484 7.89741 11.1263 7.94177C11.1152 7.99723 11.7346 8.23013 11.7235 8.28558C11.7124 8.32994 11.0599 8.17467 11.0378 8.23013C11.0157 8.27449 11.624 8.55175 11.6129 8.60721C11.5908 8.65157 10.9604 8.46303 10.9382 8.50739C10.9161 8.55175 11.5134 8.86229 11.4912 8.90665C11.4691 8.95101 10.8387 8.7292 10.8166 8.77357C10.7945 8.81793 11.3696 9.16174 11.3475 9.2061C11.3253 9.25046 10.706 8.98429 10.6839 9.02865C10.6618 9.07301 11.2147 9.45009 11.1926 9.49445C11.1705 9.53881 10.5733 9.23937 10.5401 9.28373C10.518 9.32809 11.0488 9.72735 11.0157 9.77172C10.9825 9.81608 10.4074 9.48336 10.3742 9.52773C10.341 9.57209 10.8498 10.0046 10.8276 10.0379C10.7945 10.0823 10.2304 9.71626 10.2083 9.76063C10.1751 9.80499 10.6618 10.2597 10.6286 10.3041C10.5954 10.3484 10.0535 9.94917 10.0203 9.99353C9.9871 10.0379 10.4516 10.5148 10.4074 10.5591C10.3742 10.5924 9.85438 10.171 9.8212 10.2153C9.78802 10.2597 10.2194 10.7588 10.1862 10.8031C10.153 10.8364 9.6553 10.3928 9.61106 10.4261C9.57788 10.4593 9.97604 10.9917 9.94286 11.025C9.89862 11.0582 9.4341 10.5813 9.38986 10.6146C9.34562 10.6479 9.72166 11.2024 9.68848 11.2357C9.64424 11.2689 9.20184 10.7699 9.1576 10.8031C9.11336 10.8364 9.45622 11.402 9.42304 11.4353C9.3788 11.4686 8.96959 10.9362 8.92535 10.9695C8.88111 11.0028 9.19078 11.5906 9.14654 11.6128C9.1023 11.6349 8.71521 11.0915 8.67097 11.1248C8.62673 11.1469 8.90323 11.7569 8.85899 11.7791C8.81475 11.8013 8.46083 11.2357 8.41659 11.2579C8.37235 11.28 8.61567 11.9011 8.57143 11.9233C8.52719 11.9455 8.20645 11.3577 8.15115 11.3798C8.10691 11.402 8.31705 12.0342 8.26175 12.0564C8.21751 12.0786 7.91889 11.4686 7.87465 11.4908C7.83042 11.5129 8.00737 12.1562 7.95207 12.1673C7.90783 12.1895 7.6424 11.5684 7.59816 11.5795C7.55392 11.5906 7.68664 12.2449 7.6424 12.2671C7.5871 12.2782 7.3659 11.646 7.32166 11.6682C7.26636 11.6793 7.37696 12.3447 7.32166 12.3558C7.26636 12.3669 7.0894 11.7237 7.0341 11.7347C6.9788 11.7347 7.04516 12.4113 7.00092 12.4224C6.94562 12.4224 6.80184 11.7791 6.74654 11.7902C6.69124 11.7902 6.72442 12.4667 6.66912 12.4667C6.61382 12.4667 6.50323 11.8124 6.44793 11.8124C6.39263 11.8124 6.39263 12.4889 6.33733 12.4889C6.28203 12.4889 6.20461 11.8235 6.14931 11.8235C6.09401 11.8235 6.04977 12.4889 6.00553 12.4889L5.99447 12.5Z" stroke="#F4A804" stroke-width="2" mask="url(#path-1-inside-1_760_12264)"/>
</svg>
