<svg width="366" height="19" viewBox="0 0 366 19" fill="none" xmlns="http://www.w3.org/2000/svg">
<path d="M13.916 18.836H11.732C1.868 18.836 0.836 14.828 0.836 12.5V12.26H8.324C8.396 13.22 8.9 14.78 12.788 14.78H13.004C16.82 14.78 17.372 13.964 17.372 13.1V13.076C17.372 12.164 16.916 11.588 13.172 11.468L9.86 11.372C2.948 11.18 1.1 8.756 1.1 5.996V5.78C1.1 2.876 3.044 0.331999 11.372 0.331999H13.508C22.34 0.331999 24.356 3.14 24.356 5.972V6.164H16.94C16.868 5.516 16.484 4.268 12.62 4.268H12.38C8.804 4.268 8.444 4.892 8.444 5.588V5.612C8.444 6.332 8.972 6.908 12.332 6.98L15.548 7.052C22.34 7.244 24.98 8.828 24.98 12.428V12.764C24.98 15.764 23.3 18.836 13.916 18.836ZM26.5192 0.644H46.2712V5.012H33.2392V7.244H46.0072V11.588H33.2392V14.036H46.4632V18.5H26.5192V0.644ZM48.4333 0.644H56.0653L66.4333 10.796V0.644H73.2013V18.5H66.3853L55.2013 7.676V18.5H48.4333V0.644ZM75.5036 18.5V0.644H88.1756C98.4716 0.644 101.064 4.892 101.064 9.092V9.812C101.064 13.868 98.8316 18.5 88.1996 18.5H75.5036ZM82.3196 5.324V13.772H87.3836C93.3356 13.772 93.9836 11.156 93.9836 9.596V9.452C93.9836 7.892 93.3356 5.324 87.3836 5.324H82.3196ZM117.132 18.5V5.516H109.428V0.644H131.652V5.516H123.948V18.5H117.132ZM133.418 18.5V0.644H140.234V6.956H151.394V0.644H158.186V18.5H151.394V11.708H140.234V18.5H133.418ZM160.488 0.644H180.24V5.012H167.208V7.244H179.976V11.588H167.208V14.036H180.432V18.5H160.488V0.644ZM189.691 18.5V0.644H199.051L204.523 10.676L210.091 0.644H219.067V18.5H212.323V7.364L206.059 18.5H202.579L196.339 7.364V18.5H189.691ZM221.379 0.644H241.131V5.012H228.099V7.244H240.867V11.588H228.099V14.036H241.323V18.5H221.379V0.644ZM255.557 18.836H253.373C243.509 18.836 242.477 14.828 242.477 12.5V12.26H249.965C250.037 13.22 250.541 14.78 254.429 14.78H254.645C258.461 14.78 259.013 13.964 259.013 13.1V13.076C259.013 12.164 258.557 11.588 254.813 11.468L251.501 11.372C244.589 11.18 242.741 8.756 242.741 5.996V5.78C242.741 2.876 244.685 0.331999 253.013 0.331999H255.149C263.981 0.331999 265.997 3.14 265.997 5.972V6.164H258.581C258.509 5.516 258.125 4.268 254.261 4.268H254.021C250.445 4.268 250.085 4.892 250.085 5.588V5.612C250.085 6.332 250.613 6.908 253.973 6.98L257.189 7.052C263.981 7.244 266.621 8.828 266.621 12.428V12.764C266.621 15.764 264.941 18.836 255.557 18.836ZM280.494 18.836H278.31C268.446 18.836 267.414 14.828 267.414 12.5V12.26H274.902C274.974 13.22 275.478 14.78 279.366 14.78H279.582C283.398 14.78 283.95 13.964 283.95 13.1V13.076C283.95 12.164 283.494 11.588 279.75 11.468L276.438 11.372C269.526 11.18 267.678 8.756 267.678 5.996V5.78C267.678 2.876 269.622 0.331999 277.95 0.331999H280.086C288.918 0.331999 290.934 3.14 290.934 5.972V6.164H283.518C283.446 5.516 283.062 4.268 279.198 4.268H278.958C275.382 4.268 275.022 4.892 275.022 5.588V5.612C275.022 6.332 275.55 6.908 278.91 6.98L282.126 7.052C288.918 7.244 291.558 8.828 291.558 12.428V12.764C291.558 15.764 289.878 18.836 280.494 18.836ZM307.131 11.156L304.131 5.012L301.203 11.156H307.131ZM310.707 18.5L309.315 15.62H299.115L297.747 18.5H290.835L299.667 0.644H308.835L318.171 18.5H310.707ZM329.285 18.836H328.733C318.965 18.836 316.685 13.604 316.685 9.836V9.164C316.685 5.324 318.797 0.308 329.333 0.308H330.269C341.213 0.308 342.701 4.7 342.797 7.196V7.22H335.693C335.573 6.764 334.949 4.964 329.909 4.964C325.109 4.964 323.741 7.028 323.741 9.38V9.644C323.741 11.924 325.445 14.156 329.861 14.156C334.469 14.156 335.957 12.5 335.957 11.924H329.693V8.444H342.917V18.5H338.621C338.501 17.924 338.117 16.676 337.781 16.028C337.085 16.796 334.853 18.836 329.285 18.836ZM345.105 0.644H364.857V5.012H351.825V7.244H364.593V11.588H351.825V14.036H365.049V18.5H345.105V0.644Z" fill="black"/>
</svg>
