<svg width="397" height="18" viewBox="0 0 397 18" fill="none" xmlns="http://www.w3.org/2000/svg">
<path opacity="0.15" d="M0.254 0.632H17.502V4.35H5.314V6.77H17.216V10.51H5.314V13.194H17.722V17H0.254V0.632ZM19.8478 0.632H25.5678L36.0178 10.928V0.632H41.0778V17H36.0178L24.9078 6.154V17H19.8478V0.632ZM49.99 17V4.504H42.95V0.632H62.222V4.504H55.16V17H49.99ZM64.0841 0.632H81.3321V4.35H69.1441V6.77H81.0461V10.51H69.1441V13.194H81.5521V17H64.0841V0.632ZM88.8038 4.35V7.562H96.5698C98.0438 7.562 98.6378 6.858 98.6378 5.956V5.934C98.6378 5.076 98.0658 4.35 96.5698 4.35H88.8038ZM88.8038 11.192V17H83.6778V0.632H96.8778C102.334 0.632 103.984 2.524 103.984 4.878V5.142C103.984 7.496 102.026 8.376 100.948 8.728C102.62 9.212 104.05 10.378 104.05 12.49V14.888C104.05 16.208 104.204 16.626 104.358 16.89V17H99.1438C98.9898 16.802 98.9018 16.56 98.9018 15.966V14.074C98.9018 12.072 98.0218 11.192 95.4918 11.192H88.8038ZM119.85 17V10.664L111.094 0.632H117.452L122.534 6.66L127.704 0.632H133.49L124.976 10.664V17H119.85ZM143.358 0.345999H144.304C154.6 0.345999 155.81 5.516 155.81 8.442V9.102C155.81 11.984 154.622 17.286 144.304 17.286H143.358C132.996 17.286 131.83 11.984 131.83 9.102V8.442C131.83 5.516 132.996 0.345999 143.358 0.345999ZM150.442 8.904V8.596C150.442 6.726 149.364 4.306 143.82 4.306C138.188 4.306 137.198 6.726 137.198 8.596V8.86C137.198 10.73 138.276 13.304 143.82 13.304C149.32 13.304 150.442 10.796 150.442 8.904ZM168.451 17.242H167.659C158.881 17.242 157.451 11.654 157.451 8.574V0.632H162.599V8.266C162.599 10.378 163.545 12.996 168.011 12.996C172.411 12.996 173.379 10.378 173.379 8.266V0.632H178.505V8.574C178.505 11.654 176.833 17.242 168.451 17.242ZM185.935 4.35V7.562H193.701C195.175 7.562 195.769 6.858 195.769 5.956V5.934C195.769 5.076 195.197 4.35 193.701 4.35H185.935ZM185.935 11.192V17H180.809V0.632H194.009C199.465 0.632 201.115 2.524 201.115 4.878V5.142C201.115 7.496 199.157 8.376 198.079 8.728C199.751 9.212 201.181 10.378 201.181 12.49V14.888C201.181 16.208 201.335 16.626 201.489 16.89V17H196.275C196.121 16.802 196.033 16.56 196.033 15.966V14.074C196.033 12.072 195.153 11.192 192.623 11.192H185.935ZM209.963 0.632H227.211V4.35H215.023V6.77H226.925V10.51H215.023V13.194H227.431V17H209.963V0.632ZM229.557 17V0.632H236.839L242.493 10.818L248.169 0.632H255.187V17H250.127V5.67L243.681 17H240.931L234.485 5.67V17H229.557ZM270.813 10.312L267.645 4.174L264.609 10.312H270.813ZM274.245 17L272.705 14.008H262.783L261.309 17H256.095L264.367 0.632H271.011L279.767 17H274.245ZM285.794 0.632V17H280.668V0.632H285.794ZM288.295 0.632H293.421V12.93H304.795V17H288.295V0.632ZM313.453 17V0.632H318.579V6.594H329.579V0.632H334.705V17H329.579V10.554H318.579V17H313.453ZM337.215 0.632H354.463V4.35H342.275V6.77H354.177V10.51H342.275V13.194H354.683V17H337.215V0.632ZM361.935 4.35V7.562H369.701C371.175 7.562 371.769 6.858 371.769 5.956V5.934C371.769 5.076 371.197 4.35 369.701 4.35H361.935ZM361.935 11.192V17H356.809V0.632H370.009C375.465 0.632 377.115 2.524 377.115 4.878V5.142C377.115 7.496 375.157 8.376 374.079 8.728C375.751 9.212 377.181 10.378 377.181 12.49V14.888C377.181 16.208 377.335 16.626 377.489 16.89V17H372.275C372.121 16.802 372.033 16.56 372.033 15.966V14.074C372.033 12.072 371.153 11.192 368.623 11.192H361.935ZM379.195 0.632H396.443V4.35H384.255V6.77H396.157V10.51H384.255V13.194H396.663V17H379.195V0.632Z" fill="white"/>
</svg>
