<?xml version="1.0" standalone="no"?>
<!DOCTYPE svg PUBLIC "-//W3C//DTD SVG 20010904//EN"
 "http://www.w3.org/TR/2001/REC-SVG-20010904/DTD/svg10.dtd">
<svg version="1.0" xmlns="http://www.w3.org/2000/svg"
 width="668.000000pt" height="373.000000pt" viewBox="0 0 668.000000 373.000000"
 preserveAspectRatio="xMidYMid meet">

<g transform="translate(0.000000,373.000000) scale(0.100000,-0.100000)"
fill="#000000" stroke="none">
<path d="M488 3263 c-16 -8 -28 -21 -28 -29 0 -7 -7 -14 -15 -14 -12 0 -13
-177 -8 -1372 3 -755 10 -1374 14 -1376 5 -2 9 -10 9 -18 0 -21 43 -28 129
-20 71 6 3213 19 3836 16 154 -1 447 -5 650 -11 204 -5 521 -9 705 -9 336 0
336 0 355 22 20 23 20 46 23 1401 2 758 1 1389 -2 1403 l-6 24 -2818 -1
c-2439 -1 -2821 -3 -2844 -16z m5565 -96 c8 -31 12 -2591 4 -2604 -6 -10
-5400 -8 -5459 2 -21 3 -28 11 -32 37 -7 45 -13 2463 -6 2512 4 31 12 42 40
57 33 18 128 19 2741 19 l2707 0 5 -23z"/>
<path d="M2825 2920 c14 -6 -3 -9 -52 -9 l-73 -1 0 -400 0 -400 -27 -11 c-16
-6 -146 -12 -308 -15 -154 -2 -425 -6 -602 -9 -223 -4 -323 -3 -323 4 0 6 -7
11 -16 11 -9 0 -25 10 -35 22 -18 20 -19 45 -19 405 l0 383 -22 8 c-13 4 -89
8 -170 7 -122 0 -150 -3 -163 -16 -15 -15 -17 -108 -16 -1009 0 -656 4 -996
11 -1000 5 -3 72 -12 148 -18 121 -11 142 -11 175 3 l37 15 0 380 c0 213 4
380 9 380 5 0 11 9 14 20 5 20 10 20 645 18 352 -2 644 -7 648 -11 9 -8 11
-102 13 -538 l1 -256 98 -7 c174 -12 232 -10 249 7 14 14 16 128 20 994 3 673
1 987 -6 1006 -7 17 -18 27 -31 27 -11 0 -20 5 -20 10 0 6 -40 10 -102 9 -67
0 -96 -3 -83 -9z"/>
<path d="M3767 2910 c-54 -4 -94 -13 -105 -22 -9 -8 -24 -18 -32 -22 -68 -31
-155 -121 -166 -170 -3 -17 -11 -34 -17 -38 -20 -12 -29 -191 -34 -713 -7
-754 3 -838 121 -956 32 -33 79 -69 105 -82 l46 -22 990 0 990 0 3 172 c3 206
5 203 -101 203 -84 0 -114 7 -121 26 -3 8 -11 306 -17 661 -8 517 -13 654 -25
681 -8 19 -14 42 -14 51 0 9 -17 35 -38 56 -21 22 -41 48 -45 57 -7 21 -95 78
-119 78 -9 0 -24 7 -32 16 -10 10 -48 19 -103 24 -101 11 -1153 11 -1286 0z
m1283 -390 c13 -8 15 -89 18 -607 3 -640 3 -635 -47 -655 -14 -5 -236 -12
-495 -16 -625 -9 -665 -9 -674 4 -4 6 -14 13 -23 16 -38 14 -42 71 -44 633 -2
425 0 546 11 570 7 17 15 38 18 48 5 16 43 17 613 17 366 0 614 -4 623 -10z"/>
</g>
</svg>
