<?xml version="1.0" standalone="no"?>
<!DOCTYPE svg PUBLIC "-//W3C//DTD SVG 20010904//EN"
 "http://www.w3.org/TR/2001/REC-SVG-20010904/DTD/svg10.dtd">
<svg version="1.0" xmlns="http://www.w3.org/2000/svg"
 width="1800.000000pt" height="1120.000000pt" viewBox="0 0 1800.000000 1120.000000"
 preserveAspectRatio="xMidYMid meet">

<g transform="translate(0.000000,1120.000000) scale(0.100000,-0.100000)"
fill="#000000" stroke="none">
<path d="M8580 11184 c-36 -2 -157 -8 -270 -14 -358 -19 -684 -51 -1030 -101
-1995 -290 -3292 -786 -4360 -1667 -63 -53 -180 -161 -260 -241 -677 -679
-900 -1570 -579 -2319 368 -861 1317 -1625 2635 -2120 2070 -780 4698 -947
7000 -447 929 202 1842 527 2471 878 590 331 1036 690 1364 1099 297 372 482
814 508 1216 23 348 -47 679 -213 1011 -317 632 -987 1232 -1866 1670 -1139
568 -2570 915 -4200 1021 -160 11 -1069 21 -1200 14z m905 -594 c940 -33 1788
-154 2740 -392 362 -90 478 -132 531 -190 19 -21 34 -47 34 -59 0 -54 -66
-123 -240 -252 -459 -338 -1042 -656 -1698 -927 -415 -170 -1037 -388 -1372
-481 -118 -32 -280 -77 -360 -99 -387 -109 -551 -135 -840 -135 -259 0 -357
14 -478 70 -77 36 -192 136 -234 203 -58 94 -85 345 -55 517 35 199 103 386
247 680 267 544 603 893 981 1019 170 57 263 63 744 46z m-2777 -241 c12 -7
24 -20 27 -27 10 -26 -25 -82 -113 -184 -553 -640 -1114 -1475 -1652 -2458
-238 -435 -597 -1148 -889 -1766 -45 -95 -58 -115 -91 -133 -82 -46 -136 -25
-430 172 -225 150 -534 436 -678 628 -156 206 -269 433 -322 643 -89 355 -52
653 128 1021 301 614 900 1095 1942 1560 490 219 1131 413 1750 531 185 35
286 39 328 13z m7447 -955 c67 -18 157 -72 306 -184 530 -398 874 -851 984
-1295 79 -317 39 -626 -124 -970 -112 -235 -243 -417 -451 -625 -394 -396
-959 -735 -1745 -1048 -404 -161 -1072 -354 -1435 -416 -253 -43 -341 -50
-385 -32 -37 16 -37 17 -31 56 5 32 29 67 129 182 535 623 1048 1378 1550
2285 328 592 680 1286 924 1823 77 169 96 199 148 231 30 19 39 19 130 -7z
m-4120 -2289 c122 -25 236 -85 320 -170 39 -38 82 -92 97 -120 74 -139 61
-476 -28 -750 -70 -213 -294 -662 -423 -847 -255 -367 -639 -618 -990 -646
-98 -8 -407 -1 -741 18 -918 51 -1887 214 -2760 465 -201 57 -247 80 -279 137
-19 32 -8 89 25 128 85 100 541 412 878 600 525 292 1089 525 2108 868 619
209 967 298 1303 332 127 13 394 5 490 -15z"/>
<path d="M0 1295 l0 -1295 310 0 310 0 2 518 3 517 560 0 560 0 3 -517 2 -518
310 0 310 0 0 1295 0 1295 -310 0 -310 0 -2 -492 -3 -493 -562 -3 -563 -2 0
495 0 495 -310 0 -310 0 0 -1295z"/>
<path d="M2620 2584 c0 -4 239 -386 530 -850 l530 -842 0 -446 0 -446 310 0
310 0 0 445 0 444 476 758 c262 417 503 800 535 851 l58 92 -367 0 -367 0
-320 -510 c-176 -280 -322 -510 -325 -510 -3 0 -149 230 -324 510 l-320 510
-363 0 c-200 0 -363 -3 -363 -6z"/>
<path d="M5620 1295 l0 -1295 990 0 989 0 67 24 c94 34 168 89 220 162 54 76
81 151 94 263 6 51 10 507 10 1114 l0 1027 -310 0 -310 0 -2 -973 c-3 -910 -4
-975 -21 -1000 -42 -64 -19 -62 -589 -65 l-518 -3 0 1021 0 1020 -310 0 -310
0 0 -1295z"/>
<path d="M8560 1295 l0 -1295 310 0 310 0 0 1015 0 1016 524 -3 525 -3 30 -29
c17 -17 36 -46 41 -65 6 -23 10 -390 10 -983 l0 -948 310 0 311 0 -4 1088 c-3
1192 0 1120 -63 1251 -55 112 -189 212 -322 240 -37 8 -352 11 -1017 11 l-965
0 0 -1295z"/>
<path d="M11500 1295 l0 -1295 1003 2 1002 3 57 23 c123 50 216 146 270 280
l23 57 0 920 c0 888 -1 922 -20 980 -42 130 -156 247 -286 296 l-64 24 -992 3
-993 2 0 -1295z m1670 720 c15 -8 38 -27 49 -41 21 -26 21 -33 21 -679 l0
-652 -23 -34 c-13 -19 -38 -39 -57 -46 -25 -9 -176 -12 -537 -12 l-503 -1 0
740 0 740 510 0 c432 0 515 -2 540 -15z"/>
<path d="M14764 2571 c-161 -46 -273 -158 -330 -331 -18 -52 -19 -119 -22
-1147 l-3 -1093 311 0 310 0 2 398 3 397 560 0 560 0 3 -397 2 -398 310 0 310
0 0 1295 0 1295 -977 -1 c-900 0 -983 -2 -1039 -18z m1396 -876 l0 -335 -565
0 -565 0 0 280 c0 300 2 311 52 356 12 12 30 24 38 27 8 3 246 6 528 6 l512 1
0 -335z"/>
<path d="M17380 1295 l0 -1295 310 0 310 0 0 1295 0 1295 -310 0 -310 0 0
-1295z"/>
</g>
</svg>
