<?xml version="1.0" standalone="no"?>
<!DOCTYPE svg PUBLIC "-//W3C//DTD SVG 20010904//EN"
 "http://www.w3.org/TR/2001/REC-SVG-20010904/DTD/svg10.dtd">
<svg version="1.0" xmlns="http://www.w3.org/2000/svg"
 width="298.000000pt" height="484.000000pt" viewBox="0 0 298.000000 484.000000"
 preserveAspectRatio="xMidYMid meet">

<g transform="translate(0.000000,484.000000) scale(0.100000,-0.100000)"
fill="#000000" stroke="none">
<path d="M1220 4117 l-95 -22 -6 -260 c-3 -143 -4 -840 -2 -1550 2 -710 4
-1298 3 -1307 0 -10 15 -22 43 -31 23 -8 63 -23 89 -32 26 -9 69 -34 95 -56
28 -23 56 -38 68 -37 20 3 20 12 23 362 3 396 5 381 -61 407 -40 15 -67 38
-67 56 0 9 16 13 60 13 54 0 60 2 65 23 3 12 4 569 3 1237 l-3 1215 -60 2
c-33 1 -103 -8 -155 -20z"/>
<path d="M1542 2903 l3 -1238 104 -3 c57 -1 108 1 113 6 11 11 15 2422 5 2439
-10 17 -89 33 -161 33 l-66 0 2 -1237z"/>
<path d="M1885 4060 c-3 -5 -5 -541 -5 -1191 0 -869 3 -1186 12 -1196 8 -10
32 -13 87 -11 l76 3 5 1155 c3 635 2 1165 -2 1178 -13 40 -155 91 -173 62z"/>
<path d="M927 4007 c-94 -50 -235 -157 -313 -239 -171 -180 -290 -436 -320
-687 -21 -176 -20 -2303 1 -2545 15 -168 65 -429 90 -463 10 -13 17 -13 65 0
30 9 80 18 110 22 30 3 87 15 127 25 39 11 97 23 128 26 83 10 89 20 60 104
-34 99 -55 218 -62 351 -5 101 -3 125 16 187 26 87 58 126 130 160 l56 27 3
1526 c2 1348 0 1528 -13 1533 -8 3 -43 -9 -78 -27z"/>
<path d="M2156 3905 c-4 -11 -10 -3652 -6 -3821 0 -7 7 -14 15 -17 23 -9 114
22 125 43 7 13 8 622 5 1865 -5 1840 -5 1847 -25 1875 -43 61 -101 88 -114 55z"/>
<path d="M2416 3661 c-8 -12 -8 -3529 -1 -3541 11 -18 45 -10 70 15 l25 24 0
1702 c0 1842 3 1730 -51 1788 -21 23 -35 26 -43 12z"/>
<path d="M2629 3278 c0 -2 -2 -700 -3 -1551 -3 -1350 -2 -1550 11 -1562 17
-18 19 -18 44 -5 19 11 19 36 19 1376 0 1157 -2 1387 -15 1512 -16 154 -29
217 -45 227 -6 3 -10 5 -11 3z"/>
<path d="M1537 1443 c-2 -10 -3 -179 -3 -375 1 -341 2 -357 21 -381 11 -14 53
-67 93 -118 71 -89 108 -126 118 -116 2 2 7 179 11 393 6 435 9 414 -65 496
-51 57 -130 118 -152 118 -10 0 -20 -8 -23 -17z"/>
<path d="M1878 793 c-5 -546 -9 -480 38 -543 67 -89 125 -133 140 -108 4 6 6
166 5 356 -2 392 4 360 -93 520 -49 83 -64 102 -80 102 -5 0 -9 -147 -10 -327z"/>
</g>
</svg>
