<?xml version="1.0" standalone="no"?>
<!DOCTYPE svg PUBLIC "-//W3C//DTD SVG 20010904//EN"
 "http://www.w3.org/TR/2001/REC-SVG-20010904/DTD/svg10.dtd">
<svg version="1.0" xmlns="http://www.w3.org/2000/svg"
 width="320.000000pt" height="100.000000pt" viewBox="0 0 320.000000 100.000000"
 preserveAspectRatio="xMidYMid meet">

<g transform="translate(0.000000,100.000000) scale(0.100000,-0.100000)"
fill="#000000" stroke="none">
<path d="M393 879 c-150 -29 -243 -127 -243 -255 1 -159 138 -264 346 -265
167 -1 286 61 334 173 25 59 24 142 -3 194 -64 123 -251 190 -434 153z m194
-82 c109 -28 171 -103 160 -193 -11 -98 -108 -163 -242 -164 -115 0 -186 30
-232 99 -27 40 -31 117 -8 161 44 85 193 130 322 97z"/>
<path d="M1145 877 c-27 -8 -69 -23 -92 -35 l-43 -22 0 25 c0 23 -3 25 -50 25
l-50 0 0 -340 0 -340 50 0 50 0 0 115 c0 63 2 115 4 115 2 0 30 -12 62 -27 55
-26 69 -28 184 -28 117 0 129 2 188 29 70 33 134 96 153 153 19 58 7 144 -27
200 -31 50 -106 104 -174 124 -57 17 -200 20 -255 6z m259 -100 c74 -34 101
-75 101 -154 0 -69 -17 -101 -75 -141 -49 -33 -106 -45 -195 -40 -156 9 -242
91 -222 214 21 130 230 194 391 121z"/>
<path d="M1905 877 c-27 -8 -69 -23 -92 -35 l-43 -22 0 25 c0 23 -3 25 -50 25
l-50 0 0 -340 0 -340 50 0 50 0 0 115 c0 63 2 115 5 115 3 0 23 -9 43 -19 59
-30 117 -42 205 -42 112 0 199 28 262 83 60 53 84 105 85 182 0 108 -64 193
-179 237 -70 27 -214 34 -286 16z m216 -83 c102 -30 149 -85 149 -172 0 -57
-27 -104 -79 -139 -46 -31 -94 -43 -176 -43 -134 1 -231 66 -242 164 -17 145
164 244 348 190z"/>
<path d="M2665 877 c-98 -26 -176 -81 -211 -150 -9 -16 -18 -56 -21 -86 -10
-107 49 -195 167 -250 79 -36 230 -42 328 -12 86 26 162 89 187 156 27 68 17
163 -21 217 -34 49 -90 90 -154 114 -60 21 -211 27 -275 11z m210 -82 c105
-28 155 -83 155 -173 0 -57 -27 -104 -79 -139 -46 -31 -94 -43 -176 -43 -134
1 -231 66 -242 164 -17 145 153 240 342 191z"/>
</g>
</svg>
