<svg width="240" height="96" viewBox="0 0 240 96" fill="none" xmlns="http://www.w3.org/2000/svg">
<path d="M91.6685 0.0380278C62.397 0.456418 35.8891 17.7623 23.5375 44.691C16.9575 59.0301 10.3776 73.3693 3.89159 87.5563L0 96L240 96C238.158 91.9683 236.278 87.8986 234.416 83.8288C228.457 70.8209 222.46 57.7559 216.462 44.691C205.596 20.9762 183.732 4.71631 158.69 0.874794C158.54 0.855773 158.408 0.817741 158.258 0.798721C157.619 0.703636 156.979 0.665603 156.34 0.589538C155.156 0.437393 153.99 0.285248 152.787 0.190162C152.712 0.190162 152.618 0.190162 152.543 0.190162C150.794 0.0760574 149.027 -7.62298e-06 147.26 -7.53258e-06L92.6837 -4.74092e-06C92.3265 -4.72265e-06 91.9881 0.0380278 91.6309 0.0380278L91.6685 0.0380278Z" fill="#F03021"/>
<path d="M89.9825 45.1275C89.9225 45.2325 89.8575 45.31 89.7875 45.36C89.7225 45.405 89.64 45.4275 89.54 45.4275C89.435 45.4275 89.32 45.39 89.195 45.315C89.075 45.235 88.93 45.1475 88.76 45.0525C88.59 44.9575 88.39 44.8725 88.16 44.7975C87.935 44.7175 87.6675 44.6775 87.3575 44.6775C87.0775 44.6775 86.8325 44.7125 86.6225 44.7825C86.4125 44.8475 86.235 44.94 86.09 45.06C85.95 45.18 85.845 45.325 85.775 45.495C85.705 45.66 85.67 45.8425 85.67 46.0425C85.67 46.2975 85.74 46.51 85.88 46.68C86.025 46.85 86.215 46.995 86.45 47.115C86.685 47.235 86.9525 47.3425 87.2525 47.4375C87.5525 47.5325 87.86 47.635 88.175 47.745C88.49 47.85 88.7975 47.975 89.0975 48.12C89.3975 48.26 89.665 48.44 89.9 48.66C90.135 48.875 90.3225 49.14 90.4625 49.455C90.6075 49.77 90.68 50.1525 90.68 50.6025C90.68 51.0925 90.595 51.5525 90.425 51.9825C90.26 52.4075 90.015 52.78 89.69 53.1C89.37 53.415 88.9775 53.665 88.5125 53.85C88.0475 54.03 87.515 54.12 86.915 54.12C86.57 54.12 86.23 54.085 85.895 54.015C85.56 53.95 85.2375 53.855 84.9275 53.73C84.6225 53.605 84.335 53.455 84.065 53.28C83.795 53.105 83.555 52.91 83.345 52.695L83.9375 51.7275C83.9875 51.6575 84.0525 51.6 84.1325 51.555C84.2125 51.505 84.2975 51.48 84.3875 51.48C84.5125 51.48 84.6475 51.5325 84.7925 51.6375C84.9375 51.7375 85.11 51.85 85.31 51.975C85.51 52.1 85.7425 52.215 86.0075 52.32C86.2775 52.42 86.6 52.47 86.975 52.47C87.55 52.47 87.995 52.335 88.31 52.065C88.625 51.79 88.7825 51.3975 88.7825 50.8875C88.7825 50.6025 88.71 50.37 88.565 50.19C88.425 50.01 88.2375 49.86 88.0025 49.74C87.7675 49.615 87.5 49.51 87.2 49.425C86.9 49.34 86.595 49.2475 86.285 49.1475C85.975 49.0475 85.67 48.9275 85.37 48.7875C85.07 48.6475 84.8025 48.465 84.5675 48.24C84.3325 48.015 84.1425 47.735 83.9975 47.4C83.8575 47.06 83.7875 46.6425 83.7875 46.1475C83.7875 45.7525 83.865 45.3675 84.02 44.9925C84.18 44.6175 84.41 44.285 84.71 43.995C85.01 43.705 85.38 43.4725 85.82 43.2975C86.26 43.1225 86.765 43.035 87.335 43.035C87.975 43.035 88.565 43.135 89.105 43.335C89.645 43.535 90.105 43.815 90.485 44.175L89.9825 45.1275ZM94.4649 44.76V47.7675H98.2599V49.32H94.4649V52.3875H99.2799V54H92.4399V43.155H99.2799V44.76H94.4649ZM103.093 44.76V47.7675H106.888V49.32H103.093V52.3875H107.908V54H101.068V43.155H107.908V44.76H103.093ZM125.103 43.155V54H123.326V46.995C123.326 46.715 123.341 46.4125 123.371 46.0875L120.093 52.245C119.938 52.54 119.701 52.6875 119.381 52.6875H119.096C118.776 52.6875 118.538 52.54 118.383 52.245L115.068 46.065C115.083 46.23 115.096 46.3925 115.106 46.5525C115.116 46.7125 115.121 46.86 115.121 46.995V54H113.343V43.155H114.866C114.956 43.155 115.033 43.1575 115.098 43.1625C115.163 43.1675 115.221 43.18 115.271 43.2C115.326 43.22 115.373 43.2525 115.413 43.2975C115.458 43.3425 115.501 43.4025 115.541 43.4775L118.788 49.5C118.873 49.66 118.951 49.825 119.021 49.995C119.096 50.165 119.168 50.34 119.238 50.52C119.308 50.335 119.381 50.1575 119.456 49.9875C119.531 49.8125 119.611 49.645 119.696 49.485L122.898 43.4775C122.938 43.4025 122.981 43.3425 123.026 43.2975C123.071 43.2525 123.118 43.22 123.168 43.2C123.223 43.18 123.283 43.1675 123.348 43.1625C123.413 43.1575 123.491 43.155 123.581 43.155H125.103ZM137.865 48.5775C137.865 49.3725 137.733 50.11 137.468 50.79C137.208 51.465 136.838 52.05 136.358 52.545C135.878 53.04 135.3 53.4275 134.625 53.7075C133.95 53.9825 133.2 54.12 132.375 54.12C131.555 54.12 130.808 53.9825 130.133 53.7075C129.458 53.4275 128.878 53.04 128.393 52.545C127.913 52.05 127.54 51.465 127.275 50.79C127.01 50.11 126.878 49.3725 126.878 48.5775C126.878 47.7825 127.01 47.0475 127.275 46.3725C127.54 45.6925 127.913 45.105 128.393 44.61C128.878 44.115 129.458 43.73 130.133 43.455C130.808 43.175 131.555 43.035 132.375 43.035C132.925 43.035 133.443 43.1 133.928 43.23C134.413 43.355 134.858 43.535 135.263 43.77C135.668 44 136.03 44.2825 136.35 44.6175C136.675 44.9475 136.95 45.3175 137.175 45.7275C137.4 46.1375 137.57 46.5825 137.685 47.0625C137.805 47.5425 137.865 48.0475 137.865 48.5775ZM135.803 48.5775C135.803 47.9825 135.723 47.45 135.563 46.98C135.403 46.505 135.175 46.1025 134.88 45.7725C134.585 45.4425 134.225 45.19 133.8 45.015C133.38 44.84 132.905 44.7525 132.375 44.7525C131.845 44.7525 131.368 44.84 130.943 45.015C130.523 45.19 130.163 45.4425 129.863 45.7725C129.568 46.1025 129.34 46.505 129.18 46.98C129.02 47.45 128.94 47.9825 128.94 48.5775C128.94 49.1725 129.02 49.7075 129.18 50.1825C129.34 50.6525 129.568 51.0525 129.863 51.3825C130.163 51.7075 130.523 51.9575 130.943 52.1325C131.368 52.3075 131.845 52.395 132.375 52.395C132.905 52.395 133.38 52.3075 133.8 52.1325C134.225 51.9575 134.585 51.7075 134.88 51.3825C135.175 51.0525 135.403 50.6525 135.563 50.1825C135.723 49.7075 135.803 49.1725 135.803 48.5775ZM142.915 48.315C143.295 48.315 143.625 48.2675 143.905 48.1725C144.19 48.0775 144.422 47.9475 144.602 47.7825C144.787 47.6125 144.925 47.4125 145.015 47.1825C145.105 46.9525 145.15 46.7 145.15 46.425C145.15 45.875 144.967 45.4525 144.602 45.1575C144.242 44.8625 143.69 44.715 142.945 44.715H141.655V48.315H142.915ZM148.105 54H146.282C145.937 54 145.687 53.865 145.532 53.595L143.252 50.1225C143.167 49.9925 143.072 49.9 142.967 49.845C142.867 49.79 142.717 49.7625 142.517 49.7625H141.655V54H139.637V43.155H142.945C143.68 43.155 144.31 43.2325 144.835 43.3875C145.365 43.5375 145.797 43.75 146.132 44.025C146.472 44.3 146.722 44.63 146.882 45.015C147.042 45.395 147.122 45.815 147.122 46.275C147.122 46.64 147.067 46.985 146.957 47.31C146.852 47.635 146.697 47.93 146.492 48.195C146.292 48.46 146.042 48.6925 145.742 48.8925C145.447 49.0925 145.11 49.25 144.73 49.365C144.86 49.44 144.98 49.53 145.09 49.635C145.2 49.735 145.3 49.855 145.39 49.995L148.105 54ZM151.301 44.76V47.7675H155.096V49.32H151.301V52.3875H156.116V54H149.276V43.155H156.116V44.76H151.301Z" fill="white"/>
</svg>
