<svg width="109" height="864" viewBox="0 0 109 864" fill="none" xmlns="http://www.w3.org/2000/svg">
<path d="M117.468 0H112.935H108.403H103.871H99.3385H94.8061H90.2738H85.7415H81.2092H76.6615H72.1292H67.5969H63.0646H58.5323H54H49.4677H44.9354H40.4031H35.8708H31.3385H26.8061H22.2585H17.7262H13.1939H8.66155H4.12924H-0.403071H-4.93538H-9.46769H-14V78.5535V157.107V235.616V314.17V392.723V471.277V549.83V628.339V706.893V785.446V864H-9.46769H-4.93538H-0.403071H4.12924H8.66155H13.1939H17.7262H22.2585H26.8061H31.3385H35.8708H40.4031H44.9354H49.4677H54H58.5323H63.0646H67.5969H72.1292H76.6615H81.2092H85.7415H90.2738H94.8061H99.3385H103.871H108.403H112.935H117.468H122V785.446V706.893V628.339V549.83V471.277V392.723V314.17V235.616V157.107V78.5535V0H117.468Z" fill="#FCE7D4"/>
<path d="M113.154 834.799H108.622H104.09H99.5572H95.0249H90.4926H85.9603H81.428H76.8803H72.348H67.8157H63.2834H58.7511H54.2188H49.6864H45.1541H40.6218H36.0895H31.5572H27.0249H22.4772H17.9449H13.4126H8.8803H4.34799H-0.184321H-4.71663H-9.24894H-13.7812V863.87H-9.24894H-4.71663H-0.184321H4.34799H8.8803H13.4126H17.9449H22.4772H27.0249H31.5572H36.0895H40.6218H45.1541H49.6864H54.2188H58.7511H63.2834H67.8157H72.348H76.8803H81.428H85.9603H90.4926H95.0249H99.5572H104.09H108.622H113.154H117.686H122.219V834.799H117.686H113.154Z" fill="#E93B5D"/>
<path d="M113.103 807.537H108.559H104.014H99.47H94.9256H90.3811H85.8367H81.2923H76.7324H72.188H67.6435H63.0991H58.5546H54.0102H49.4658H44.9213H40.3769H35.8324H31.288H26.7435H22.1837H17.6392H13.0948H8.55035H4.0059H-0.538541H-5.08299H-9.62743H-14.1719V834.886H-9.62743H-5.08299H-0.538541H4.0059H8.55035H13.0948H17.6392H22.1837H26.7435H31.288H35.8324H40.3769H44.9213H49.4658H54.0102H58.5546H63.0991H67.6435H72.188H76.7324H81.2923H85.8367H90.3811H94.9256H99.47H104.014H108.559H113.103H117.648H122.192V807.537H117.648H113.103Z" fill="#E93B5D"/>
<path d="M113.103 780.205H108.559H104.014H99.47H94.9256H90.3811H85.8367H81.2923H76.7324H72.188H67.6435H63.0991H58.5546H54.0102H49.4658H44.9213H40.3769H35.8324H31.288H26.7435H22.1837H17.6392H13.0948H8.55035H4.0059H-0.538541H-5.08299H-9.62743H-14.1719V807.538H-9.62743H-5.08299H-0.538541H4.0059H8.55035H13.0948H17.6392H22.1837H26.7435H31.288H35.8324H40.3769H44.9213H49.4658H54.0102H58.5546H63.0991H67.6435H72.188H76.7324H81.2923H85.8367H90.3811H94.9256H99.47H104.014H108.559H113.103H117.648H122.192V780.205H117.648H113.103Z" fill="#E93B5D"/>
<path d="M113.103 752.857H108.559H104.014H99.47H94.9256H90.3811H85.8367H81.2923H76.7324H72.188H67.6435H63.0991H58.5546H54.0102H49.4658H44.9213H40.3769H35.8324H31.288H26.7435H22.1837H17.6392H13.0948H8.55035H4.0059H-0.538541H-5.08299H-9.62743H-14.1719V780.206H-9.62743H-5.08299H-0.538541H4.0059H8.55035H13.0948H17.6392H22.1837H26.7435H31.288H35.8324H40.3769H44.9213H49.4658H54.0102H58.5546H63.0991H67.6435H72.188H76.7324H81.2923H85.8367H90.3811H94.9256H99.47H104.014H108.559H113.103H117.648H122.192V752.857H117.648H113.103Z" fill="#E93B5D"/>
<path d="M113.103 725.508H108.559H104.014H99.47H94.9256H90.3811H85.8367H81.2923H76.7324H72.188H67.6435H63.0991H58.5546H54.0102H49.4658H44.9213H40.3769H35.8324H31.288H26.7435H22.1837H17.6392H13.0948H8.55035H4.0059H-0.538541H-5.08299H-9.62743H-14.1719V752.857H-9.62743H-5.08299H-0.538541H4.0059H8.55035H13.0948H17.6392H22.1837H26.7435H31.288H35.8324H40.3769H44.9213H49.4658H54.0102H58.5546H63.0991H67.6435H72.188H76.7324H81.2923H85.8367H90.3811H94.9256H99.47H104.014H108.559H113.103H117.648H122.192V725.508H117.648H113.103Z" fill="#E93B5D"/>
<path d="M113.103 698.158H108.559H104.014H99.47H94.9256H90.3811H85.8367H81.2923H76.7324H72.188H67.6435H63.0991H58.5546H54.0102H49.4658H44.9213H40.3769H35.8324H31.288H26.7435H22.1837H17.6392H13.0948H8.55035H4.0059H-0.538541H-5.08299H-9.62743H-14.1719V725.507H-9.62743H-5.08299H-0.538541H4.0059H8.55035H13.0948H17.6392H22.1837H26.7435H31.288H35.8324H40.3769H44.9213H49.4658H54.0102H58.5546H63.0991H67.6435H72.188H76.7324H81.2923H85.8367H90.3811H94.9256H99.47H104.014H108.559H113.103H117.648H122.192V698.158H117.648H113.103Z" fill="#E93B5D"/>
<path d="M113.103 670.809H108.559H104.014H99.47H94.9256H90.3811H85.8367H81.2923H76.7324H72.188H67.6435H63.0991H58.5546H54.0102H49.4658H44.9213H40.3769H35.8324H31.288H26.7435H22.1837H17.6392H13.0948H8.55035H4.0059H-0.538541H-5.08299H-9.62743H-14.1719V698.157H-9.62743H-5.08299H-0.538541H4.0059H8.55035H13.0948H17.6392H22.1837H26.7435H31.288H35.8324H40.3769H44.9213H49.4658H54.0102H58.5546H63.0991H67.6435H72.188H76.7324H81.2923H85.8367H90.3811H94.9256H99.47H104.014H108.559H113.103H117.648H122.192V670.809H117.648H113.103Z" fill="#E74A46"/>
<path d="M113.103 643.477H108.559H104.014H99.47H94.9256H90.3811H85.8367H81.2923H76.7324H72.188H67.6435H63.0991H58.5546H54.0102H49.4658H44.9213H40.3769H35.8324H31.288H26.7435H22.1837H17.6392H13.0948H8.55035H4.0059H-0.538541H-5.08299H-9.62743H-14.1719V670.81H-9.62743H-5.08299H-0.538541H4.0059H8.55035H13.0948H17.6392H22.1837H26.7435H31.288H35.8324H40.3769H44.9213H49.4658H54.0102H58.5546H63.0991H67.6435H72.188H76.7324H81.2923H85.8367H90.3811H94.9256H99.47H104.014H108.559H113.103H117.648H122.192V643.477H117.648H113.103Z" fill="#E65631"/>
<path d="M113.103 616.129H108.559H104.014H99.47H94.9256H90.3811H85.8367H81.2923H76.7324H72.188H67.6435H63.0991H58.5546H54.0102H49.4658H44.9213H40.3769H35.8324H31.288H26.7435H22.1837H17.6392H13.0948H8.55035H4.0059H-0.538541H-5.08299H-9.62743H-14.1719V643.478H-9.62743H-5.08299H-0.538541H4.0059H8.55035H13.0948H17.6392H22.1837H26.7435H31.288H35.8324H40.3769H44.9213H49.4658H54.0102H58.5546H63.0991H67.6435H72.188H76.7324H81.2923H85.8367H90.3811H94.9256H99.47H104.014H108.559H113.103H117.648H122.192V616.129H117.648H113.103Z" fill="#E4651A"/>
<path d="M113.103 588.779H108.559H104.014H99.47H94.9256H90.3811H85.8367H81.2923H76.7324H72.188H67.6435H63.0991H58.5546H54.0102H49.4658H44.9213H40.3769H35.8324H31.288H26.7435H22.1837H17.6392H13.0948H8.55035H4.0059H-0.538541H-5.08299H-9.62743H-14.1719V616.128H-9.62743H-5.08299H-0.538541H4.0059H8.55035H13.0948H17.6392H22.1837H26.7435H31.288H35.8324H40.3769H44.9213H49.4658H54.0102H58.5546H63.0991H67.6435H72.188H76.7324H81.2923H85.8367H90.3811H94.9256H99.47H104.014H108.559H113.103H117.648H122.192V588.779H117.648H113.103Z" fill="#E37106"/>
<path d="M113.103 561.43H108.559H104.014H99.47H94.9256H90.3811H85.8367H81.2923H76.7324H72.188H67.6435H63.0991H58.5546H54.0102H49.4658H44.9213H40.3769H35.8324H31.288H26.7435H22.1837H17.6392H13.0948H8.55035H4.0059H-0.538541H-5.08299H-9.62743H-14.1719V588.778H-9.62743H-5.08299H-0.538541H4.0059H8.55035H13.0948H17.6392H22.1837H26.7435H31.288H35.8324H40.3769H44.9213H49.4658H54.0102H58.5546H63.0991H67.6435H72.188H76.7324H81.2923H85.8367H90.3811H94.9256H99.47H104.014H108.559H113.103H117.648H122.192V561.43H117.648H113.103Z" fill="#E77D09"/>
<path d="M113.103 534.082H108.559H104.014H99.47H94.9256H90.3811H85.8367H81.2923H76.7324H72.188H67.6435H63.0991H58.5546H54.0102H49.4658H44.9213H40.3769H35.8324H31.288H26.7435H22.1837H17.6392H13.0948H8.55035H4.0059H-0.538541H-5.08299H-9.62743H-14.1719V561.431H-9.62743H-5.08299H-0.538541H4.0059H8.55035H13.0948H17.6392H22.1837H26.7435H31.288H35.8324H40.3769H44.9213H49.4658H54.0102H58.5546H63.0991H67.6435H72.188H76.7324H81.2923H85.8367H90.3811H94.9256H99.47H104.014H108.559H113.103H117.648H122.192V534.082H117.648H113.103Z" fill="#ED8813"/>
<path d="M113.103 506.748H108.559H104.014H99.47H94.9256H90.3811H85.8367H81.2923H76.7324H72.188H67.6435H63.0991H58.5546H54.0102H49.4658H44.9213H40.3769H35.8324H31.288H26.7435H22.1837H17.6392H13.0948H8.55035H4.0059H-0.538541H-5.08299H-9.62743H-14.1719V534.081H-9.62743H-5.08299H-0.538541H4.0059H8.55035H13.0948H17.6392H22.1837H26.7435H31.288H35.8324H40.3769H44.9213H49.4658H54.0102H58.5546H63.0991H67.6435H72.188H76.7324H81.2923H85.8367H90.3811H94.9256H99.47H104.014H108.559H113.103H117.648H122.192V506.748H117.648H113.103Z" fill="#F2921B"/>
<path d="M113.103 479.398H108.559H104.014H99.47H94.9256H90.3811H85.8367H81.2923H76.7324H72.188H67.6435H63.0991H58.5546H54.0102H49.4658H44.9213H40.3769H35.8324H31.288H26.7435H22.1837H17.6392H13.0948H8.55035H4.0059H-0.538541H-5.08299H-9.62743H-14.1719V506.747H-9.62743H-5.08299H-0.538541H4.0059H8.55035H13.0948H17.6392H22.1837H26.7435H31.288H35.8324H40.3769H44.9213H49.4658H54.0102H58.5546H63.0991H67.6435H72.188H76.7324H81.2923H85.8367H90.3811H94.9256H99.47H104.014H108.559H113.103H117.648H122.192V479.398H117.648H113.103Z" fill="#F79D24"/>
<path d="M113.103 452.049H108.559H104.014H99.47H94.9256H90.3811H85.8367H81.2923H76.7324H72.188H67.6435H63.0991H58.5546H54.0102H49.4658H44.9213H40.3769H35.8324H31.288H26.7435H22.1837H17.6392H13.0948H8.55035H4.0059H-0.538541H-5.08299H-9.62743H-14.1719V479.398H-9.62743H-5.08299H-0.538541H4.0059H8.55035H13.0948H17.6392H22.1837H26.7435H31.288H35.8324H40.3769H44.9213H49.4658H54.0102H58.5546H63.0991H67.6435H72.188H76.7324H81.2923H85.8367H90.3811H94.9256H99.47H104.014H108.559H113.103H117.648H122.192V452.049H117.648H113.103Z" fill="#FCA62D"/>
<path d="M113.103 424.701H108.559H104.014H99.47H94.9256H90.3811H85.8367H81.2923H76.7324H72.188H67.6435H63.0991H58.5546H54.0102H49.4658H44.9213H40.3769H35.8324H31.288H26.7435H22.1837H17.6392H13.0948H8.55035H4.0059H-0.538541H-5.08299H-9.62743H-14.1719V452.05H-9.62743H-5.08299H-0.538541H4.0059H8.55035H13.0948H17.6392H22.1837H26.7435H31.288H35.8324H40.3769H44.9213H49.4658H54.0102H58.5546H63.0991H67.6435H72.188H76.7324H81.2923H85.8367H90.3811H94.9256H99.47H104.014H108.559H113.103H117.648H122.192V424.701H117.648H113.103Z" fill="#FEB44D"/>
<path d="M113.103 397.354H108.559H104.014H99.47H94.9256H90.3811H85.8367H81.2923H76.7324H72.188H67.6435H63.0991H58.5546H54.0102H49.4658H44.9213H40.3769H35.8324H31.288H26.7435H22.1837H17.6392H13.0948H8.55035H4.0059H-0.538541H-5.08299H-9.62743H-14.1719V424.702H-9.62743H-5.08299H-0.538541H4.0059H8.55035H13.0948H17.6392H22.1837H26.7435H31.288H35.8324H40.3769H44.9213H49.4658H54.0102H58.5546H63.0991H67.6435H72.188H76.7324H81.2923H85.8367H90.3811H94.9256H99.47H104.014H108.559H113.103H117.648H122.192V397.354H117.648H113.103Z" fill="#FDC273"/>
<path d="M113.103 370.021H108.559H104.014H99.47H94.9256H90.3811H85.8367H81.2923H76.7324H72.188H67.6435H63.0991H58.5546H54.0102H49.4658H44.9213H40.3769H35.8324H31.288H26.7435H22.1837H17.6392H13.0948H8.55035H4.0059H-0.538541H-5.08299H-9.62743H-14.1719V397.355H-9.62743H-5.08299H-0.538541H4.0059H8.55035H13.0948H17.6392H22.1837H26.7435H31.288H35.8324H40.3769H44.9213H49.4658H54.0102H58.5546H63.0991H67.6435H72.188H76.7324H81.2923H85.8367H90.3811H94.9256H99.47H104.014H108.559H113.103H117.648H122.192V370.021H117.648H113.103Z" fill="#FDD29D"/>
<path d="M113.103 342.672H108.559H104.014H99.47H94.9256H90.3811H85.8367H81.2923H76.7324H72.188H67.6435H63.0991H58.5546H54.0102H49.4658H44.9213H40.3769H35.8324H31.288H26.7435H22.1837H17.6392H13.0948H8.55035H4.0059H-0.538541H-5.08299H-9.62743H-14.1719V370.021H-9.62743H-5.08299H-0.538541H4.0059H8.55035H13.0948H17.6392H22.1837H26.7435H31.288H35.8324H40.3769H44.9213H49.4658H54.0102H58.5546H63.0991H67.6435H72.188H76.7324H81.2923H85.8367H90.3811H94.9256H99.47H104.014H108.559H113.103H117.648H122.192V342.672H117.648H113.103Z" fill="#FCE0C3"/>
<path d="M-5.01884 1.32164H0.850424H6.70428H12.5581H18.412H24.2813H30.1351H35.989H41.8428H47.7121H53.566H59.4198H65.2737H71.143H76.9968H82.8507H88.7045H94.5738H100.428H106.282H112.135H118.005H123.859H129.712H135.566H141.42H147.289H153.143H158.997V-0.142578H153.143H147.289H141.42H135.566H129.712H123.859H118.005H112.135H106.282H100.428H94.5738H88.7045H82.8507H76.9968H71.143H65.2737H59.4198H53.566H47.7121H41.8428H35.989H30.1351H24.2813H18.412H12.5581H6.70428H0.850424H-5.01884H-10.8727H-16.7266V1.32164H-10.8727H-5.01884Z" fill="#5D2678"/>
<path d="M-5.01884 2.77021H0.850424H6.70428H12.5581H18.412H24.2813H30.1351H35.989H41.8428H47.7121H53.566H59.4198H65.2737H71.143H76.9968H82.8507H88.7045H94.5738H100.428H106.282H112.135H118.005H123.859H129.712H135.566H141.42H147.289H153.143H158.997V1.32227H153.143H147.289H141.42H135.566H129.712H123.859H118.005H112.135H106.282H100.428H94.5738H88.7045H82.8507H76.9968H71.143H65.2737H59.4198H53.566H47.7121H41.8428H35.989H30.1351H24.2813H18.412H12.5581H6.70428H0.850424H-5.01884H-10.8727H-16.7266V2.77021H-10.8727H-5.01884Z" fill="#662776"/>
<path d="M-5.01884 4.23375H0.850424H6.70428H12.5581H18.412H24.2813H30.1351H35.989H41.8428H47.7121H53.566H59.4198H65.2737H71.143H76.9968H82.8507H88.7045H94.5738H100.428H106.282H112.135H118.005H123.859H129.712H135.566H141.42H147.289H153.143H158.997V2.76953H153.143H147.289H141.42H135.566H129.712H123.859H118.005H112.135H106.282H100.428H94.5738H88.7045H82.8507H76.9968H71.143H65.2737H59.4198H53.566H47.7121H41.8428H35.989H30.1351H24.2813H18.412H12.5581H6.70428H0.850424H-5.01884H-10.8727H-16.7266V4.23375H-10.8727H-5.01884Z" fill="#852C71"/>
<path d="M-5.01884 5.69859H0.850424H6.70428H12.5581H18.412H24.2813H30.1351H35.989H41.8428H47.7121H53.566H59.4198H65.2737H71.143H76.9968H82.8507H88.7045H94.5738H100.428H106.282H112.135H118.005H123.859H129.712H135.566H141.42H147.289H153.143H158.997V4.23438H153.143H147.289H141.42H135.566H129.712H123.859H118.005H112.135H106.282H100.428H94.5738H88.7045H82.8507H76.9968H71.143H65.2737H59.4198H53.566H47.7121H41.8428H35.989H30.1351H24.2813H18.412H12.5581H6.70428H0.850424H-5.01884H-10.8727H-16.7266V5.69859H-10.8727H-5.01884Z" fill="#A9316B"/>
<path d="M-5.01884 7.16343H0.850424H6.70428H12.5581H18.412H24.2813H30.1351H35.989H41.8428H47.7121H53.566H59.4198H65.2737H71.143H76.9968H82.8507H88.7045H94.5738H100.428H106.282H112.135H118.005H123.859H129.712H135.566H141.42H147.289H153.143H158.997V5.69922H153.143H147.289H141.42H135.566H129.712H123.859H118.005H112.135H106.282H100.428H94.5738H88.7045H82.8507H76.9968H71.143H65.2737H59.4198H53.566H47.7121H41.8428H35.989H30.1351H24.2813H18.412H12.5581H6.70428H0.850424H-5.01884H-10.8727H-16.7266V7.16343H-10.8727H-5.01884Z" fill="#CD3665"/>
<path d="M-5.01884 8.61201H0.850424H6.70428H12.5581H18.412H24.2813H30.1351H35.989H41.8428H47.7121H53.566H59.4198H65.2737H71.143H76.9968H82.8507H88.7045H94.5738H100.428H106.282H112.135H118.005H123.859H129.712H135.566H141.42H147.289H153.143H158.997V7.16406H153.143H147.289H141.42H135.566H129.712H123.859H118.005H112.135H106.282H100.428H94.5738H88.7045H82.8507H76.9968H71.143H65.2737H59.4198H53.566H47.7121H41.8428H35.989H30.1351H24.2813H18.412H12.5581H6.70428H0.850424H-5.01884H-10.8727H-16.7266V8.61201H-10.8727H-5.01884Z" fill="#E93B5D"/>
<path d="M-5.01884 10.0755H0.850424H6.70428H12.5581H18.412H24.2813H30.1351H35.989H41.8428H47.7121H53.566H59.4198H65.2737H71.143H76.9968H82.8507H88.7045H94.5738H100.428H106.282H112.135H118.005H123.859H129.712H135.566H141.42H147.289H153.143H158.997V8.61133H153.143H147.289H141.42H135.566H129.712H123.859H118.005H112.135H106.282H100.428H94.5738H88.7045H82.8507H76.9968H71.143H65.2737H59.4198H53.566H47.7121H41.8428H35.989H30.1351H24.2813H18.412H12.5581H6.70428H0.850424H-5.01884H-10.8727H-16.7266V10.0755H-10.8727H-5.01884Z" fill="#E74A46"/>
<path d="M-5.01884 11.5404H0.850424H6.70428H12.5581H18.412H24.2813H30.1351H35.989H41.8428H47.7121H53.566H59.4198H65.2737H71.143H76.9968H82.8507H88.7045H94.5738H100.428H106.282H112.135H118.005H123.859H129.712H135.566H141.42H147.289H153.143H158.997V10.0762H153.143H147.289H141.42H135.566H129.712H123.859H118.005H112.135H106.282H100.428H94.5738H88.7045H82.8507H76.9968H71.143H65.2737H59.4198H53.566H47.7121H41.8428H35.989H30.1351H24.2813H18.412H12.5581H6.70428H0.850424H-5.01884H-10.8727H-16.7266V11.5404H-10.8727H-5.01884Z" fill="#E65631"/>
<path d="M-5.01884 13.0033H0.850424H6.70428H12.5581H18.412H24.2813H30.1351H35.989H41.8428H47.7121H53.566H59.4198H65.2737H71.143H76.9968H82.8507H88.7045H94.5738H100.428H106.282H112.135H118.005H123.859H129.712H135.566H141.42H147.289H153.143H158.997V11.5391H153.143H147.289H141.42H135.566H129.712H123.859H118.005H112.135H106.282H100.428H94.5738H88.7045H82.8507H76.9968H71.143H65.2737H59.4198H53.566H47.7121H41.8428H35.989H30.1351H24.2813H18.412H12.5581H6.70428H0.850424H-5.01884H-10.8727H-16.7266V13.0033H-10.8727H-5.01884Z" fill="#E4651A"/>
<path d="M-5.01884 14.4519H0.850424H6.70428H12.5581H18.412H24.2813H30.1351H35.989H41.8428H47.7121H53.566H59.4198H65.2737H71.143H76.9968H82.8507H88.7045H94.5738H100.428H106.282H112.135H118.005H123.859H129.712H135.566H141.42H147.289H153.143H158.997V13.0039H153.143H147.289H141.42H135.566H129.712H123.859H118.005H112.135H106.282H100.428H94.5738H88.7045H82.8507H76.9968H71.143H65.2737H59.4198H53.566H47.7121H41.8428H35.989H30.1351H24.2813H18.412H12.5581H6.70428H0.850424H-5.01884H-10.8727H-16.7266V14.4519H-10.8727H-5.01884Z" fill="#E37106"/>
<path d="M-5.01884 15.9134H0.850424H6.70428H12.5581H18.412H24.2813H30.1351H35.989H41.8428H47.7121H53.566H59.4198H65.2737H71.143H76.9968H82.8507H88.7045H94.5738H100.428H106.282H112.135H118.005H123.859H129.712H135.566H141.42H147.289H153.143H158.997V14.4492H153.143H147.289H141.42H135.566H129.712H123.859H118.005H112.135H106.282H100.428H94.5738H88.7045H82.8507H76.9968H71.143H65.2737H59.4198H53.566H47.7121H41.8428H35.989H30.1351H24.2813H18.412H12.5581H6.70428H0.850424H-5.01884H-10.8727H-16.7266V15.9134H-10.8727H-5.01884Z" fill="#E77D09"/>
<path d="M-5.01884 17.3802H0.850424H6.70428H12.5581H18.412H24.2813H30.1351H35.989H41.8428H47.7121H53.566H59.4198H65.2737H71.143H76.9968H82.8507H88.7045H94.5738H100.428H106.282H112.135H118.005H123.859H129.712H135.566H141.42H147.289H153.143H158.997V15.916H153.143H147.289H141.42H135.566H129.712H123.859H118.005H112.135H106.282H100.428H94.5738H88.7045H82.8507H76.9968H71.143H65.2737H59.4198H53.566H47.7121H41.8428H35.989H30.1351H24.2813H18.412H12.5581H6.70428H0.850424H-5.01884H-10.8727H-16.7266V17.3802H-10.8727H-5.01884Z" fill="#ED8813"/>
<path d="M-5.01884 18.8431H0.850424H6.70428H12.5581H18.412H24.2813H30.1351H35.989H41.8428H47.7121H53.566H59.4198H65.2737H71.143H76.9968H82.8507H88.7045H94.5738H100.428H106.282H112.135H118.005H123.859H129.712H135.566H141.42H147.289H153.143H158.997V17.3789H153.143H147.289H141.42H135.566H129.712H123.859H118.005H112.135H106.282H100.428H94.5738H88.7045H82.8507H76.9968H71.143H65.2737H59.4198H53.566H47.7121H41.8428H35.989H30.1351H24.2813H18.412H12.5581H6.70428H0.850424H-5.01884H-10.8727H-16.7266V18.8431H-10.8727H-5.01884Z" fill="#F2921B"/>
<path d="M-5.01884 20.2897H0.850424H6.70428H12.5581H18.412H24.2813H30.1351H35.989H41.8428H47.7121H53.566H59.4198H65.2737H71.143H76.9968H82.8507H88.7045H94.5738H100.428H106.282H112.135H118.005H123.859H129.712H135.566H141.42H147.289H153.143H158.997V18.8418H153.143H147.289H141.42H135.566H129.712H123.859H118.005H112.135H106.282H100.428H94.5738H88.7045H82.8507H76.9968H71.143H65.2737H59.4198H53.566H47.7121H41.8428H35.989H30.1351H24.2813H18.412H12.5581H6.70428H0.850424H-5.01884H-10.8727H-16.7266V20.2897H-10.8727H-5.01884Z" fill="#F79D24"/>
<path d="M-5.01884 21.7533H0.850424H6.70428H12.5581H18.412H24.2813H30.1351H35.989H41.8428H47.7121H53.566H59.4198H65.2737H71.143H76.9968H82.8507H88.7045H94.5738H100.428H106.282H112.135H118.005H123.859H129.712H135.566H141.42H147.289H153.143H158.997V20.2891H153.143H147.289H141.42H135.566H129.712H123.859H118.005H112.135H106.282H100.428H94.5738H88.7045H82.8507H76.9968H71.143H65.2737H59.4198H53.566H47.7121H41.8428H35.989H30.1351H24.2813H18.412H12.5581H6.70428H0.850424H-5.01884H-10.8727H-16.7266V21.7533H-10.8727H-5.01884Z" fill="#FCA62D"/>
<path d="M-5.01884 23.2201H0.850424H6.70428H12.5581H18.412H24.2813H30.1351H35.989H41.8428H47.7121H53.566H59.4198H65.2737H71.143H76.9968H82.8507H88.7045H94.5738H100.428H106.282H112.135H118.005H123.859H129.712H135.566H141.42H147.289H153.143H158.997V21.7559H153.143H147.289H141.42H135.566H129.712H123.859H118.005H112.135H106.282H100.428H94.5738H88.7045H82.8507H76.9968H71.143H65.2737H59.4198H53.566H47.7121H41.8428H35.989H30.1351H24.2813H18.412H12.5581H6.70428H0.850424H-5.01884H-10.8727H-16.7266V23.2201H-10.8727H-5.01884Z" fill="#FEB44D"/>
<path d="M-5.01884 24.6849H0.850424H6.70428H12.5581H18.412H24.2813H30.1351H35.989H41.8428H47.7121H53.566H59.4198H65.2737H71.143H76.9968H82.8507H88.7045H94.5738H100.428H106.282H112.135H118.005H123.859H129.712H135.566H141.42H147.289H153.143H158.997V23.2207H153.143H147.289H141.42H135.566H129.712H123.859H118.005H112.135H106.282H100.428H94.5738H88.7045H82.8507H76.9968H71.143H65.2737H59.4198H53.566H47.7121H41.8428H35.989H30.1351H24.2813H18.412H12.5581H6.70428H0.850424H-5.01884H-10.8727H-16.7266V24.6849H-10.8727H-5.01884Z" fill="#FDC273"/>
<path d="M-5.01884 26.1315H0.850424H6.70428H12.5581H18.412H24.2813H30.1351H35.989H41.8428H47.7121H53.566H59.4198H65.2737H71.143H76.9968H82.8507H88.7045H94.5738H100.428H106.282H112.135H118.005H123.859H129.712H135.566H141.42H147.289H153.143H158.997V24.6836H153.143H147.289H141.42H135.566H129.712H123.859H118.005H112.135H106.282H100.428H94.5738H88.7045H82.8507H76.9968H71.143H65.2737H59.4198H53.566H47.7121H41.8428H35.989H30.1351H24.2813H18.412H12.5581H6.70428H0.850424H-5.01884H-10.8727H-16.7266V26.1315H-10.8727H-5.01884Z" fill="#FDD29D"/>
<path d="M-5.01884 27.5951H0.850424H6.70428H12.5581H18.412H24.2813H30.1351H35.989H41.8428H47.7121H53.566H59.4198H65.2737H71.143H76.9968H82.8507H88.7045H94.5738H100.428H106.282H112.135H118.005H123.859H129.712H135.566H141.42H147.289H153.143H158.997V26.1309H153.143H147.289H141.42H135.566H129.712H123.859H118.005H112.135H106.282H100.428H94.5738H88.7045H82.8507H76.9968H71.143H65.2737H59.4198H53.566H47.7121H41.8428H35.989H30.1351H24.2813H18.412H12.5581H6.70428H0.850424H-5.01884H-10.8727H-16.7266V27.5951H-10.8727H-5.01884Z" fill="#FCE0C3"/>
</svg>
